STARTFONT 2.1
COMMENT
COMMENT Converted from OpenType font "ChivoMono-Regular.ttf" by "otf2bdf 3.0".
COMMENT
FONT -FreeType-chivo mono-Medium-R-Normal--42-300-100-100-P-185-Windows-cp1252
SIZE 30 100 100
FONTBOUNDINGBOX 25 48 0 -9
STARTPROPERTIES 19
FOUNDRY "FreeType"
FAMILY_NAME "chivo mono"
WEIGHT_NAME "Medium"
SLANT "R"
SETWIDTH_NAME "Normal"
ADD_STYLE_NAME ""
PIXEL_SIZE 42
POINT_SIZE 300
RESOLUTION_X 100
RESOLUTION_Y 100
SPACING "P"
AVERAGE_WIDTH 185
CHARSET_REGISTRY "Windows"
CHARSET_ENCODING "cp1252"
FONT_ASCENT 39
FONT_DESCENT 10
COPYRIGHT "Copyright 2018 The Chivo Project Authors (https://github.com/Omnibus-Type/Chivo)"
_OTF_FONTFILE "ChivoMono-Regular.ttf"
_OTF_PSNAME "ChivoMono-Regular"
ENDPROPERTIES
CHARS 219
STARTCHAR 000D
ENCODING 13
SWIDTH 600 0
DWIDTH 25 0
BBX 0 0 0 0
BITMAP
ENDCHAR
STARTCHAR 0020
ENCODING 32
SWIDTH 600 0
DWIDTH 25 0
BBX 0 0 0 0
BITMAP
ENDCHAR
STARTCHAR 0021
ENCODING 33
SWIDTH 600 0
DWIDTH 25 0
BBX 5 29 10 0
BITMAP
F8
F8
F8
F8
F8
F8
F8
F8
F8
F8
78
70
70
70
70
70
70
70
70
70
70
00
00
00
F8
F8
F8
F8
F8
ENDCHAR
STARTCHAR 0022
ENCODING 34
SWIDTH 600 0
DWIDTH 25 0
BBX 9 12 8 17
BITMAP
E380
E380
E380
E380
E380
E380
E380
E380
E380
E380
C380
C180
ENDCHAR
STARTCHAR 0023
ENCODING 35
SWIDTH 600 0
DWIDTH 25 0
BBX 25 29 0 0
BITMAP
00381C00
00781C00
00701C00
00703C00
00703800
00F03800
00F03800
00E07800
00E07000
3FFFFF80
3FFFFF80
3FFFFF80
01C0F000
01C0E000
03C0E000
0380E000
0381E000
0381C000
FFFFFE00
FFFFFE00
FFFFFE00
0703C000
07038000
0F038000
0E038000
0E078000
0E070000
0E070000
1E070000
ENDCHAR
STARTCHAR 0024
ENCODING 36
SWIDTH 600 0
DWIDTH 25 0
BBX 21 35 2 -3
BITMAP
007000
007000
007000
007000
03FE00
0FFF80
3FFFE0
3F07E0
7C01F0
7800F0
7800F0
780070
780000
7C0000
7F8000
3FF800
1FFF00
07FFC0
00FFE0
000FF0
0001F8
0000F8
000078
F00078
F00078
F000F8
7800F0
7F07F0
3FFFE0
1FFFC0
07FF00
007000
007000
007000
007000
ENDCHAR
STARTCHAR 0025
ENCODING 37
SWIDTH 600 0
DWIDTH 25 0
BBX 25 29 0 0
BITMAP
0C000380
3F800700
7F800E00
E1C00E00
E0C01C00
E0C03800
E0C07000
E0C06000
E0C0E000
E0C1C000
E0C18000
E1C70000
73C00000
7F800000
1F001000
0000FE00
0000FF00
0071C380
00E18380
01C18380
01818380
03818380
07018380
0E018380
0C018380
1C01C380
3801E700
7000FF00
F0007C00
ENDCHAR
STARTCHAR 0026
ENCODING 38
SWIDTH 600 0
DWIDTH 25 0
BBX 23 29 2 0
BITMAP
01F800
0FF800
1FF800
3F9800
7E0000
7C0000
780000
7800E0
7800E0
7800E0
7C00E0
3E01E0
1F81E0
0FFFFE
07FFFE
1FFFFE
3E01E0
7C01E0
7801E0
F801E0
F001E0
F001E0
F001E0
F801E0
7C01E0
7F01E0
3FFFE0
1FFFE0
03FFE0
ENDCHAR
STARTCHAR 0027
ENCODING 39
SWIDTH 600 0
DWIDTH 25 0
BBX 3 12 11 17
BITMAP
E0
E0
E0
E0
E0
E0
E0
E0
E0
E0
E0
40
ENDCHAR
STARTCHAR 0028
ENCODING 40
SWIDTH 600 0
DWIDTH 25 0
BBX 9 36 9 -7
BITMAP
0380
0300
0700
0E00
0E00
1C00
3C00
3800
3800
7800
7000
7000
F000
F000
F000
F000
F000
F000
F000
F000
F000
F000
F000
F000
7000
7000
7800
3800
3800
3C00
1C00
0E00
0E00
0700
0300
0380
ENDCHAR
STARTCHAR 0029
ENCODING 41
SWIDTH 600 0
DWIDTH 25 0
BBX 9 36 7 -7
BITMAP
E000
6000
7000
3800
3800
1C00
1E00
0E00
0E00
0F00
0F00
0700
0780
0780
0780
0780
0780
0780
0780
0780
0780
0780
0780
0780
0700
0F00
0F00
0E00
0E00
1C00
1C00
3800
3800
7000
6000
E000
ENDCHAR
STARTCHAR 002A
ENCODING 42
SWIDTH 600 0
DWIDTH 25 0
BBX 17 17 4 12
BITMAP
01C000
01C000
01C000
01C000
01C000
61C300
F9CF80
FFFF80
1FFC00
01C000
03E000
077000
0E7800
1E3C00
3C1E00
1C1C00
080800
ENDCHAR
STARTCHAR 002B
ENCODING 43
SWIDTH 600 0
DWIDTH 25 0
BBX 21 21 2 0
BITMAP
007000
007000
007000
007000
007000
007000
007000
007000
007000
FFFFF8
FFFFF8
FFFFF8
007000
007000
007000
007000
007000
007000
007000
007000
007000
ENDCHAR
STARTCHAR 002C
ENCODING 44
SWIDTH 600 0
DWIDTH 25 0
BBX 5 12 10 -6
BITMAP
F8
F8
F8
F8
F8
F8
38
38
30
70
70
E0
ENDCHAR
STARTCHAR 002D
ENCODING 45
SWIDTH 600 0
DWIDTH 25 0
BBX 11 4 7 9
BITMAP
FFE0
FFE0
FFE0
FFE0
ENDCHAR
STARTCHAR 002E
ENCODING 46
SWIDTH 600 0
DWIDTH 25 0
BBX 5 5 10 0
BITMAP
F8
F8
F8
F8
F8
ENDCHAR
STARTCHAR 002F
ENCODING 47
SWIDTH 600 0
DWIDTH 25 0
BBX 23 36 1 -7
BITMAP
00000E
00001E
00001C
00003C
000038
000070
0000F0
0000E0
0001E0
0001C0
0003C0
000380
000780
000F00
000E00
001E00
001C00
003C00
003800
007800
007000
00E000
01E000
01C000
03C000
038000
078000
070000
0F0000
1E0000
1C0000
3C0000
380000
780000
700000
F00000
ENDCHAR
STARTCHAR 0030
ENCODING 48
SWIDTH 600 0
DWIDTH 25 0
BBX 19 29 3 0
BITMAP
03F800
0FFE00
1FFF80
3F1F80
7C07C0
F803E0
F001E0
F001E0
F001E0
F001E0
F001E0
F001E0
F001E0
F001E0
F001E0
F001E0
F001E0
F001E0
F001E0
F001E0
F001E0
F001E0
F001E0
F803E0
7C07C0
7E0FC0
3FFF80
1FFF00
07FC00
ENDCHAR
STARTCHAR 0031
ENCODING 49
SWIDTH 600 0
DWIDTH 25 0
BBX 20 29 3 0
BITMAP
007000
03F000
3FF000
FFF000
FFF000
00F000
00F000
00F000
00F000
00F000
00F000
00F000
00F000
00F000
00F000
00F000
00F000
00F000
00F000
00F000
00F000
00F000
00F000
00F000
00F000
00F000
FFFFF0
FFFFF0
FFFFF0
ENDCHAR
STARTCHAR 0032
ENCODING 50
SWIDTH 600 0
DWIDTH 25 0
BBX 21 29 2 0
BITMAP
01FE00
07FF80
0FFFC0
1FFFE0
3E03E0
3C01F0
7800F0
7800F0
7800F0
7800F0
0000F0
0000F0
0001F0
0003E0
0007C0
001FC0
003F00
00FE00
01F800
07F000
0FC000
1F8000
3E0000
7C0000
7C0000
7FFFF8
7FFFF8
FFFFF8
FFFFF8
ENDCHAR
STARTCHAR 0033
ENCODING 51
SWIDTH 600 0
DWIDTH 25 0
BBX 20 29 2 0
BITMAP
03FC00
0FFF00
1FFFC0
3F9FC0
7C03E0
7801E0
7801F0
7000F0
0000F0
0001F0
0001E0
0003E0
000FC0
01FF00
01FF00
01FFC0
0007E0
0001F0
0000F0
0000F0
0000F0
F000F0
F000F0
F000F0
7801F0
7E07E0
3FFFC0
1FFF80
07FE00
ENDCHAR
STARTCHAR 0034
ENCODING 52
SWIDTH 600 0
DWIDTH 25 0
BBX 21 29 2 0
BITMAP
00F000
00F000
01F000
01E000
01E080
03C180
03C180
078380
078380
0F0780
0F0780
1E0780
1E0780
3C0780
3C0780
780780
700780
F00780
FFFFF8
FFFFF8
FFFFF8
FFFFF8
000780
000780
000780
000780
000780
000780
000780
ENDCHAR
STARTCHAR 0035
ENCODING 53
SWIDTH 600 0
DWIDTH 25 0
BBX 20 29 3 0
BITMAP
3FFFC0
3FFFC0
3FFFC0
3FFFC0
780000
780000
780000
780000
780000
780000
787000
7BFE00
7FFF80
7FFF80
7C0FC0
7803E0
1003E0
0001E0
0001E0
0001F0
F001F0
F001E0
F001E0
F803E0
7807C0
7E0FC0
3FFF80
1FFF00
07FC00
ENDCHAR
STARTCHAR 0036
ENCODING 54
SWIDTH 600 0
DWIDTH 25 0
BBX 20 29 3 0
BITMAP
03F800
0FFE00
1FFF80
3FBFC0
7C07C0
7803E0
F801E0
F001E0
F001E0
F00000
F00000
F0FC00
F3FF00
F7FF80
FE07C0
FC03E0
F801E0
F801F0
F000F0
F000F0
F000F0
F000F0
F801F0
7801E0
7C03E0
3E07C0
1FFF80
0FFF00
07FE00
ENDCHAR
STARTCHAR 0037
ENCODING 55
SWIDTH 600 0
DWIDTH 25 0
BBX 20 29 3 0
BITMAP
FFFFF0
FFFFF0
FFFFF0
FFFFE0
0003C0
0003C0
000780
000F00
000F00
001E00
003C00
003C00
007800
007800
00F000
00F000
01E000
01E000
03E000
03C000
03C000
07C000
07C000
078000
078000
078000
0F8000
0F8000
0F8000
ENDCHAR
STARTCHAR 0038
ENCODING 56
SWIDTH 600 0
DWIDTH 25 0
BBX 21 29 2 0
BITMAP
01FC00
07FF00
1FFFC0
1F07C0
3E03E0
3C01E0
7C01F0
7800F0
7800F0
3801F0
3C01E0
3E03E0
1F07C0
0FFF80
07FF00
1FFFC0
3E03E0
7C01F0
7800F0
7800F0
F800F8
F800F8
7800F8
7800F0
7C01F0
3E03F0
3FFFE0
1FFFC0
07FF00
ENDCHAR
STARTCHAR 0039
ENCODING 57
SWIDTH 600 0
DWIDTH 25 0
BBX 20 29 2 0
BITMAP
01F800
0FFF00
1FFF80
3F0FC0
7C03E0
7801E0
F801F0
F800F0
F000F0
F000F0
F000F0
F801F0
7801F0
7C03F0
3E07F0
3FFFF0
1FFCF0
07F8F0
0000F0
0000F0
7800F0
7800F0
7801F0
7801E0
7C03E0
3F07C0
1FFFC0
0FFF00
07FE00
ENDCHAR
STARTCHAR 003A
ENCODING 58
SWIDTH 600 0
DWIDTH 25 0
BBX 5 21 10 0
BITMAP
F8
F8
F8
F8
F8
00
00
00
00
00
00
00
00
00
00
00
F8
F8
F8
F8
F8
ENDCHAR
STARTCHAR 003B
ENCODING 59
SWIDTH 600 0
DWIDTH 25 0
BBX 5 27 10 -6
BITMAP
F8
F8
F8
F8
F8
00
00
00
00
00
00
00
00
00
00
F8
F8
F8
F8
F8
F8
38
38
30
70
70
E0
ENDCHAR
STARTCHAR 003C
ENCODING 60
SWIDTH 600 0
DWIDTH 25 0
BBX 22 21 1 0
BITMAP
00000C
00003C
0001FC
0007FC
003FF0
00FF80
07FC00
3FF000
FF8000
FC0000
F00000
FE0000
FFC000
1FF000
07FE00
00FF80
001FF0
0007FC
0000FC
00003C
000004
ENDCHAR
STARTCHAR 003D
ENCODING 61
SWIDTH 600 0
DWIDTH 25 0
BBX 21 13 2 4
BITMAP
FFFFF8
FFFFF8
FFFFF8
FFFFF8
000000
000000
000000
000000
000000
FFFFF8
FFFFF8
FFFFF8
FFFFF8
ENDCHAR
STARTCHAR 003E
ENCODING 62
SWIDTH 600 0
DWIDTH 25 0
BBX 22 21 2 0
BITMAP
C00000
F00000
FE0000
FF8000
3FF000
07FE00
00FF80
003FF0
0007FC
0000FC
00003C
0001FC
0007FC
003FE0
01FF80
07FC00
3FE000
FF8000
FC0000
F00000
800000
ENDCHAR
STARTCHAR 003F
ENCODING 63
SWIDTH 600 0
DWIDTH 25 0
BBX 19 29 3 0
BITMAP
03F800
0FFE00
1FFF00
3F1F80
7C07C0
7803C0
7803E0
F803E0
F003E0
F803E0
0003C0
0007C0
000F80
001F00
003E00
007C00
00F800
00F000
00F000
00F000
00F000
000000
000000
000000
01F800
01F800
01F800
01F800
01F800
ENDCHAR
STARTCHAR 0040
ENCODING 64
SWIDTH 600 0
DWIDTH 25 0
BBX 25 36 0 -7
BITMAP
007F8000
01FFE000
07C0F800
0F003800
1E001C00
1C000E00
38000600
301C0700
70FF8300
71FFC300
61E3C300
63C1E380
E3C1E380
E380E380
E000E180
E000E180
C003E180
C07FE180
C1FFE180
C1F0E180
C3C0E380
E3C0E380
E781E380
E781E380
E781E300
63C3E300
63FFFF00
73FE7E00
31FC7C00
38000000
38000000
1C000000
0F002000
07FFE000
01FFE000
003E0000
ENDCHAR
STARTCHAR 0041
ENCODING 65
SWIDTH 600 0
DWIDTH 25 0
BBX 23 29 1 0
BITMAP
007C00
00FC00
00FE00
00FE00
01FE00
01EF00
01EF00
01CF00
03C780
03C780
03C780
0783C0
0783C0
0783C0
0F03E0
0F01E0
0F01E0
1E01F0
1E00F0
1FFFF0
3FFFF8
3FFFF8
3FFFF8
7C007C
78003C
78003C
F8003E
F0003E
F0001E
ENDCHAR
STARTCHAR 0042
ENCODING 66
SWIDTH 600 0
DWIDTH 25 0
BBX 20 29 3 0
BITMAP
FFF800
FFFF00
FFFFC0
FFFFC0
F003E0
F003E0
F001E0
F001E0
F001E0
F001E0
F001E0
F003C0
F00F80
FFFF00
FFFE00
FFFF80
F007E0
F001E0
F001F0
F000F0
F000F0
F000F0
F001F0
F001F0
F003E0
FFFFE0
FFFFC0
FFFF80
FFFE00
ENDCHAR
STARTCHAR 0043
ENCODING 67
SWIDTH 600 0
DWIDTH 25 0
BBX 21 29 2 0
BITMAP
01FE00
0FFF80
1FFFC0
3FFFE0
7E01F0
7C00F0
F800F0
F800F8
F00078
F00078
F00078
F00000
F00000
F00000
F00000
F00000
F00000
F00000
F00078
F00078
F00078
F80078
F800F8
7800F0
7C01F0
3F07E0
1FFFC0
0FFF80
07FF00
ENDCHAR
STARTCHAR 0044
ENCODING 68
SWIDTH 600 0
DWIDTH 25 0
BBX 21 29 3 0
BITMAP
FFE000
FFFF00
FFFF80
FFFFC0
F807E0
F801F0
F800F0
F800F8
F800F8
F80078
F80078
F80078
F80078
F80078
F80078
F80078
F80078
F80078
F80078
F80078
F80078
F800F8
F800F8
F801F0
F803F0
FFFFE0
FFFFC0
FFFF00
FFFC00
ENDCHAR
STARTCHAR 0045
ENCODING 69
SWIDTH 600 0
DWIDTH 25 0
BBX 19 29 4 0
BITMAP
FFFFC0
FFFFC0
FFFFC0
FFFFC0
F00000
F00000
F00000
F00000
F00000
F00000
F00000
F00000
F00000
FFFF00
FFFF00
FFFF00
F00000
F00000
F00000
F00000
F00000
F00000
F00000
F00000
F00000
FFFFC0
FFFFC0
FFFFC0
FFFFE0
ENDCHAR
STARTCHAR 0046
ENCODING 70
SWIDTH 600 0
DWIDTH 25 0
BBX 18 29 4 0
BITMAP
FFFFC0
FFFFC0
FFFF80
FFFF80
F00000
F00000
F00000
F00000
F00000
F00000
F00000
F00000
F00000
FFFE00
FFFE00
FFFE00
F00000
F00000
F00000
F00000
F00000
F00000
F00000
F00000
F00000
F00000
F00000
F00000
F00000
ENDCHAR
STARTCHAR 0047
ENCODING 71
SWIDTH 600 0
DWIDTH 25 0
BBX 21 29 2 0
BITMAP
01FE00
0FFF80
1FFFC0
3FFFE0
7E03F0
7C01F0
F800F8
F80078
F00078
F00078
F00000
F00000
F00000
F00000
F03FF8
F03FF8
F03FF8
F00078
F00078
F00078
F00078
F80078
F800F8
7800F8
7C01F8
3F07F8
3FFFB8
0FFF38
07FE18
ENDCHAR
STARTCHAR 0048
ENCODING 72
SWIDTH 600 0
DWIDTH 25 0
BBX 19 29 3 0
BITMAP
F001E0
F001E0
F001E0
F001E0
F001E0
F001E0
F001E0
F001E0
F001E0
F001E0
F001E0
F001E0
F001E0
FFFFE0
FFFFE0
FFFFE0
F001E0
F001E0
F001E0
F001E0
F001E0
F001E0
F001E0
F001E0
F001E0
F001E0
F001E0
F001E0
F001E0
ENDCHAR
STARTCHAR 0049
ENCODING 73
SWIDTH 600 0
DWIDTH 25 0
BBX 17 29 4 0
BITMAP
FFFF80
FFFF80
FFFF80
FFFF80
03E000
03E000
03E000
03E000
03E000
03E000
03E000
03E000
03E000
03E000
03E000
03E000
03E000
03E000
03E000
03E000
03E000
03E000
03E000
03E000
03E000
03E000
FFFF80
FFFF80
FFFF80
ENDCHAR
STARTCHAR 004A
ENCODING 74
SWIDTH 600 0
DWIDTH 25 0
BBX 17 29 4 0
BITMAP
000780
000780
000780
000780
000780
000780
000780
000780
000780
000780
000780
000780
000780
000780
000780
000780
000780
000780
000780
000780
F00780
F00780
F00780
F00F80
F80F80
7C1F00
7FFF00
3FFE00
0FF800
ENDCHAR
STARTCHAR 004B
ENCODING 75
SWIDTH 600 0
DWIDTH 25 0
BBX 21 29 3 0
BITMAP
F000F8
F001F0
F001E0
F003E0
F007C0
F00F80
F00F80
F01F00
F03E00
F07C00
F07C00
F0F800
F1F000
F3E000
F7F000
F7F800
FFF800
FE7C00
FC3E00
FC3E00
F81F00
F01F80
F00F80
F007C0
F007E0
F003E0
F001F0
F001F0
F000F8
ENDCHAR
STARTCHAR 004C
ENCODING 76
SWIDTH 600 0
DWIDTH 25 0
BBX 18 29 4 0
BITMAP
F80000
F80000
F80000
F80000
F80000
F80000
F80000
F80000
F80000
F80000
F80000
F80000
F80000
F80000
F80000
F80000
F80000
F80000
F80000
F80000
F80000
F80000
F80000
F80000
F80000
FFFFC0
FFFFC0
FFFFC0
FFFFC0
ENDCHAR
STARTCHAR 004D
ENCODING 77
SWIDTH 600 0
DWIDTH 25 0
BBX 21 29 2 0
BITMAP
FC01F8
FE03F8
FE03F8
FE03F8
FE03F8
FE03F8
FE0378
F70778
F70778
F70778
F70678
F70678
F78E78
F38E78
F38E78
F38E78
F38C78
F38C78
F3DC78
F1DC78
F1DC78
F1DC78
F1D878
F1F878
F0F878
F0F878
F0F878
F0F078
F0F078
ENDCHAR
STARTCHAR 004E
ENCODING 78
SWIDTH 600 0
DWIDTH 25 0
BBX 19 29 3 0
BITMAP
F001E0
F801E0
F801E0
FC01E0
FC01E0
FE01E0
FF01E0
FF01E0
FF81E0
F781E0
F7C1E0
F3C1E0
F3E1E0
F1E1E0
F1F1E0
F0F1E0
F0F9E0
F079E0
F07DE0
F03DE0
F03DE0
F01FE0
F01FE0
F00FE0
F00FE0
F007E0
F007E0
F003E0
F003E0
ENDCHAR
STARTCHAR 004F
ENCODING 79
SWIDTH 600 0
DWIDTH 25 0
BBX 21 29 2 0
BITMAP
01FC00
0FFF80
1FFFC0
3FFFE0
7E03F0
7C01F0
F800F8
F800F8
F00078
F00078
F00078
F00078
F00078
F00078
F00078
F00078
F00078
F00078
F00078
F00078
F00078
F80078
F800F8
7800F0
7C01F0
3F07E0
1FFFC0
0FFF80
07FF00
ENDCHAR
STARTCHAR 0050
ENCODING 80
SWIDTH 600 0
DWIDTH 25 0
BBX 21 29 3 0
BITMAP
FFF800
FFFF80
FFFFC0
FFFFE0
F003F0
F001F0
F000F8
F000F8
F000F8
F000F8
F000F8
F000F0
F001F0
FFFFE0
FFFFE0
FFFF80
FFFF00
F00000
F00000
F00000
F00000
F00000
F00000
F00000
F00000
F00000
F00000
F00000
F00000
ENDCHAR
STARTCHAR 0051
ENCODING 81
SWIDTH 600 0
DWIDTH 25 0
BBX 22 35 2 -6
BITMAP
01FC00
0FFF80
1FFFC0
3FFFE0
7E03F0
7C01F0
F800F8
F800F8
F00078
F00078
F00078
F00078
F00078
F00078
F00078
F00078
F00078
F00078
F00078
F00078
F00078
F80078
F800F8
7800F0
7C01F0
3F07E0
3FFFC0
0FFF80
07FF00
007800
007800
007E04
003FFC
001FFC
0007F0
ENDCHAR
STARTCHAR 0052
ENCODING 82
SWIDTH 600 0
DWIDTH 25 0
BBX 22 29 3 0
BITMAP
FFF800
FFFF80
FFFFC0
FFFFE0
F003F0
F001F0
F000F0
F000F8
F000F0
F000F0
F000F0
F001F0
F003E0
FFFFC0
FFFF80
FFFF80
FFFFC0
F007E0
F003E0
F001F0
F001F0
F001F0
F000F0
F000F0
F000F0
F000F0
F000F8
F000F8
F0007C
ENDCHAR
STARTCHAR 0053
ENCODING 83
SWIDTH 600 0
DWIDTH 25 0
BBX 21 29 2 0
BITMAP
01FE00
0FFF80
3FFFE0
3FCFE0
7C01F0
7800F0
F800F8
F80078
F80000
F80000
7E0000
7F8000
3FF800
1FFF00
07FFC0
00FFE0
001FF0
0003F8
0000F8
000078
F00078
F00078
F00078
F000F8
F800F8
7F07F0
3FFFE0
1FFFC0
07FF00
ENDCHAR
STARTCHAR 0054
ENCODING 84
SWIDTH 600 0
DWIDTH 25 0
BBX 23 29 1 0
BITMAP
FFFFFE
FFFFFE
FFFFFE
FFFFFE
007C00
007C00
007C00
007C00
007C00
007C00
007C00
007C00
007C00
007C00
007C00
007C00
007C00
007C00
007C00
007C00
007C00
007C00
007C00
007C00
007C00
007C00
007C00
007C00
007C00
ENDCHAR
STARTCHAR 0055
ENCODING 85
SWIDTH 600 0
DWIDTH 25 0
BBX 19 29 3 0
BITMAP
F001E0
F001E0
F001E0
F001E0
F001E0
F001E0
F001E0
F001E0
F001E0
F001E0
F001E0
F001E0
F001E0
F001E0
F001E0
F001E0
F001E0
F001E0
F001E0
F001E0
F001E0
F001E0
F001E0
F803E0
7C07C0
7E0FC0
3FFF80
1FFF00
0FFE00
ENDCHAR
STARTCHAR 0056
ENCODING 86
SWIDTH 600 0
DWIDTH 25 0
BBX 23 29 1 0
BITMAP
F0001E
F0001E
F8001E
78003C
78003C
7C003C
3C007C
3C0078
3E0078
1E00F8
1E00F0
1E00F0
1F01F0
0F01E0
0F01E0
0F81E0
0783C0
0783C0
07C3C0
03C780
03C780
03E780
01EF00
01EF00
01FF00
00FE00
00FE00
00FE00
007C00
ENDCHAR
STARTCHAR 0057
ENCODING 87
SWIDTH 600 0
DWIDTH 25 0
BBX 25 29 0 0
BITMAP
F01E0780
F01E0780
F01E0780
F03E0780
783E0700
783E0700
783F0700
783F0F00
78370F00
78770F00
3C770E00
3C770E00
3C770E00
3C779E00
3C639E00
3C639E00
1EE39E00
1EE39C00
1EE39C00
1EE3FC00
1EE1FC00
1EC1FC00
1FC1FC00
0FC1F800
0FC1F800
0FC1F800
0FC1F800
0F80F800
0F80F800
ENDCHAR
STARTCHAR 0058
ENCODING 88
SWIDTH 600 0
DWIDTH 25 0
BBX 25 29 0 0
BITMAP
7C001F00
3E001E00
1F003C00
1F007C00
0F807800
0FC0F800
07C1F000
03E1E000
03E3E000
01F3C000
00FF8000
00FF8000
007F0000
007F0000
007F0000
007F0000
00FF8000
00FF8000
01E7C000
03E3E000
03C3E000
07C1F000
0F80F800
0F00F800
1F007C00
1E007C00
3E003E00
7C001F00
F8001F80
ENDCHAR
STARTCHAR 0059
ENCODING 89
SWIDTH 600 0
DWIDTH 25 0
BBX 23 29 1 0
BITMAP
F8001E
F8003E
7C003C
7C007C
3E0078
3E00F8
1F00F0
0F01E0
0F81E0
0783C0
07C7C0
03C780
03EF80
01FF00
01FF00
00FE00
00FE00
007C00
007C00
007C00
007C00
007C00
007C00
007C00
007C00
007C00
007C00
007C00
007C00
ENDCHAR
STARTCHAR 005A
ENCODING 90
SWIDTH 600 0
DWIDTH 25 0
BBX 21 29 2 0
BITMAP
7FFFF8
7FFFF8
7FFFF8
7FFFF0
0003E0
0003E0
0007C0
000F80
000F80
001F00
001F00
003E00
007C00
007C00
00F800
01F000
01F000
03E000
07C000
07C000
0F8000
1F0000
1F0000
3E0000
7E0000
7FFFF8
FFFFF8
FFFFF8
FFFFF8
ENDCHAR
STARTCHAR 005B
ENCODING 91
SWIDTH 600 0
DWIDTH 25 0
BBX 9 36 10 -7
BITMAP
FF80
FF80
FF80
F000
F000
F000
F000
F000
F000
F000
F000
F000
F000
F000
F000
F000
F000
F000
F000
F000
F000
F000
F000
F000
F000
F000
F000
F000
F000
F000
F000
F000
F000
FF80
FF80
FF80
ENDCHAR
STARTCHAR 005C
ENCODING 92
SWIDTH 600 0
DWIDTH 25 0
BBX 23 36 1 -7
BITMAP
E00000
F00000
700000
780000
380000
1C0000
1E0000
0E0000
0F0000
070000
078000
038000
03C000
01E000
00E000
00F000
007000
007800
003800
003C00
001E00
000E00
000F00
000700
000780
000380
0003C0
0001C0
0001E0
0000F0
000070
000078
000038
00003C
00001C
00001E
ENDCHAR
STARTCHAR 005D
ENCODING 93
SWIDTH 600 0
DWIDTH 25 0
BBX 8 36 7 -7
BITMAP
FF
FF
FF
0F
0F
0F
0F
0F
0F
0F
0F
0F
0F
0F
0F
0F
0F
0F
0F
0F
0F
0F
0F
0F
0F
0F
0F
0F
0F
0F
0F
0F
0F
FF
FF
FF
ENDCHAR
STARTCHAR 005E
ENCODING 94
SWIDTH 600 0
DWIDTH 25 0
BBX 21 21 2 0
BITMAP
00F800
00F800
01FC00
01DC00
03DE00
03DE00
038E00
078F00
078700
0F0700
0F0780
0E0380
1E03C0
1E03C0
1C01C0
3C01E0
3800E0
7800F0
7800F0
700070
F00078
ENDCHAR
STARTCHAR 005F
ENCODING 95
SWIDTH 600 0
DWIDTH 25 0
BBX 21 3 2 -5
BITMAP
FFFFF8
FFFFF8
FFFFF8
ENDCHAR
STARTCHAR 0060
ENCODING 96
SWIDTH 600 0
DWIDTH 25 0
BBX 7 7 9 25
BITMAP
F0
F0
78
38
3C
1C
1E
ENDCHAR
STARTCHAR 0061
ENCODING 97
SWIDTH 600 0
DWIDTH 25 0
BBX 21 22 3 0
BITMAP
01E000
0FFE00
3FFF00
7E1F80
780780
7807C0
F007C0
0007C0
0007C0
003FC0
0FFFC0
3FFFC0
7E07C0
F807C0
F007C0
F007C0
F007C0
F00FC0
F81FC0
FFFBF8
7FFBF8
3FE1F8
ENDCHAR
STARTCHAR 0062
ENCODING 98
SWIDTH 600 0
DWIDTH 25 0
BBX 19 30 4 0
BITMAP
F00000
F00000
F00000
F00000
F00000
F00000
F00000
F00000
F0F000
F3FE00
F7FF00
FF3F80
FC0780
F807C0
F803C0
F003C0
F003E0
F003E0
F003E0
F003E0
F003E0
F003E0
F003C0
F003C0
F803C0
F80780
FC0F80
EFFF00
E7FE00
E3FC00
ENDCHAR
STARTCHAR 0063
ENCODING 99
SWIDTH 600 0
DWIDTH 25 0
BBX 18 22 3 0
BITMAP
01F000
0FFC00
1FFF00
3F1F80
7C0780
7803C0
F803C0
F003C0
F001C0
F00000
F00000
F00000
F00000
F00000
F001C0
F003C0
7803C0
7803C0
3C0780
3FFF00
1FFF00
07FC00
ENDCHAR
STARTCHAR 0064
ENCODING 100
SWIDTH 600 0
DWIDTH 25 0
BBX 19 30 2 0
BITMAP
0001E0
0001E0
0001E0
0001E0
0001E0
0001E0
0001E0
0001E0
01E1E0
07F9E0
1FFFE0
1F9FE0
3E07E0
7C03E0
7803E0
7801E0
7801E0
F801E0
F801E0
F801E0
F801E0
F801E0
7801E0
7801E0
7803E0
7C03E0
3E07E0
1FFFE0
1FFCE0
07F8E0
ENDCHAR
STARTCHAR 0065
ENCODING 101
SWIDTH 600 0
DWIDTH 25 0
BBX 19 22 3 0
BITMAP
00F000
07FE00
1FFF00
3F1F80
7C07C0
7803C0
F803E0
F001E0
F001E0
FFFFE0
FFFFE0
FFFFE0
F00000
F00000
F001E0
F001E0
F801E0
7803C0
7C07C0
3FFF80
1FFF00
07FC00
ENDCHAR
STARTCHAR 0066
ENCODING 102
SWIDTH 600 0
DWIDTH 25 0
BBX 20 30 3 0
BITMAP
003FE0
007FF0
00FFF0
01F010
01E000
03E000
03E000
03E000
03E000
FFFFE0
FFFFE0
FFFFE0
03E000
03E000
03E000
03E000
03E000
03E000
03E000
03E000
03E000
03E000
03E000
03E000
03E000
03E000
03E000
FFFFE0
FFFFE0
FFFFE0
ENDCHAR
STARTCHAR 0067
ENCODING 103
SWIDTH 600 0
DWIDTH 25 0
BBX 22 33 2 -8
BITMAP
00003C
00003C
000078
0078F0
07FFE0
0FFFC0
1F07E0
3E01E0
3C01E0
3C00E0
3C00F0
3C01E0
3E01E0
1F03E0
0FFFC0
07FF80
1FF800
3C0000
780000
780000
7C0000
3FFFC0
3FFFF0
1FFFF8
7FFFF8
70007C
F0003C
F0003C
F0003C
F80078
7FFFF8
3FFFF0
0FFF80
ENDCHAR
STARTCHAR 0068
ENCODING 104
SWIDTH 600 0
DWIDTH 25 0
BBX 18 30 4 0
BITMAP
F00000
F00000
F00000
F00000
F00000
F00000
F00000
F00000
F0F000
F3FE00
F7FF00
FFFF80
FC0F80
F80780
F007C0
F007C0
F007C0
F007C0
F007C0
F007C0
F007C0
F007C0
F007C0
F007C0
F007C0
F007C0
F007C0
F007C0
F007C0
F007C0
ENDCHAR
STARTCHAR 0069
ENCODING 105
SWIDTH 600 0
DWIDTH 25 0
BBX 19 30 4 0
BITMAP
01E000
01E000
01E000
01E000
000000
000000
000000
000000
000000
FFF000
FFF000
FFF000
00F000
00F000
00F000
00F000
00F000
00F000
00F000
00F000
00F000
00F000
00F000
00F000
00F000
00F000
00F000
FFFFE0
FFFFE0
FFFFE0
ENDCHAR
STARTCHAR 006A
ENCODING 106
SWIDTH 600 0
DWIDTH 25 0
BBX 12 38 4 -8
BITMAP
00E0
00E0
00E0
00E0
0000
0000
0000
0000
0000
FFF0
FFF0
FFF0
00F0
00F0
00F0
00F0
00F0
00F0
00F0
00F0
00F0
00F0
00F0
00F0
00F0
00F0
00F0
00F0
00F0
00F0
00F0
00F0
01F0
01E0
E7E0
FFC0
FF80
3E00
ENDCHAR
STARTCHAR 006B
ENCODING 107
SWIDTH 600 0
DWIDTH 25 0
BBX 20 30 3 0
BITMAP
F00000
F00000
F00000
F00000
F00000
F00000
F00000
F00000
F00000
F003E0
F007C0
F00F80
F01F00
F03E00
F07C00
F07800
F0F800
F1F000
F3E000
F7E000
FFF000
FFF800
FE7C00
FC7E00
F83E00
F01F00
F00F80
F007C0
F007E0
F003F0
ENDCHAR
STARTCHAR 006C
ENCODING 108
SWIDTH 600 0
DWIDTH 25 0
BBX 19 30 3 0
BITMAP
FFF000
FFF000
FFF000
00F000
00F000
00F000
00F000
00F000
00F000
00F000
00F000
00F000
00F000
00F000
00F000
00F000
00F000
00F000
00F000
00F000
00F000
00F000
00F000
00F000
00F000
00F000
00F000
FFFFE0
FFFFE0
FFFFE0
ENDCHAR
STARTCHAR 006D
ENCODING 109
SWIDTH 600 0
DWIDTH 25 0
BBX 21 22 2 0
BITMAP
038180
EFC7E0
FFEFF0
FFFFF8
F0F878
F07078
F07078
F07078
F07078
F07078
F07078
F07078
F07078
F07078
F07078
F07078
F07078
F07078
F07078
F07078
F07078
F07078
ENDCHAR
STARTCHAR 006E
ENCODING 110
SWIDTH 600 0
DWIDTH 25 0
BBX 18 22 4 0
BITMAP
00E000
E7FE00
EFFF00
FFFF80
FC0F80
F80780
F007C0
F007C0
F007C0
F007C0
F007C0
F007C0
F007C0
F007C0
F007C0
F007C0
F007C0
F007C0
F007C0
F007C0
F007C0
F007C0
ENDCHAR
STARTCHAR 006F
ENCODING 111
SWIDTH 600 0
DWIDTH 25 0
BBX 19 22 3 0
BITMAP
00E000
0FFC00
1FFF00
3F1F80
7C07C0
7803C0
F803E0
F001E0
F001E0
F001E0
F001E0
F001E0
F001E0
F001E0
F001E0
F001E0
F803E0
7803C0
3C0780
3FFF80
1FFF00
07FC00
ENDCHAR
STARTCHAR 0070
ENCODING 112
SWIDTH 600 0
DWIDTH 25 0
BBX 19 30 4 -8
BITMAP
00F000
E3FE00
EFFF00
FF1F80
FC0780
F807C0
F803C0
F003C0
F003E0
F003E0
F003E0
F003E0
F003E0
F003E0
F003C0
F003C0
F803C0
F807C0
FC0F80
FFFF00
F7FE00
F3FC00
F00000
F00000
F00000
F00000
F00000
F00000
F00000
F00000
ENDCHAR
STARTCHAR 0071
ENCODING 113
SWIDTH 600 0
DWIDTH 25 0
BBX 19 30 2 -8
BITMAP
01E000
07F8E0
1FFEE0
1F1FE0
3C07E0
7C03E0
7803E0
7801E0
7801E0
F801E0
F801E0
F801E0
F801E0
F801E0
7801E0
7801E0
7803E0
7C03E0
3E07E0
1FFFE0
1FFDE0
07F9E0
0001E0
0001E0
0001E0
0001E0
0001E0
0001E0
0001E0
0001E0
ENDCHAR
STARTCHAR 0072
ENCODING 114
SWIDTH 600 0
DWIDTH 25 0
BBX 21 22 2 0
BITMAP
000700
FF9FE0
FFBFF0
FFFFF8
07E0F8
07C078
07C078
07C038
078038
078000
078000
078000
078000
078000
078000
078000
078000
078000
078000
FFFFE0
FFFFE0
FFFFE0
ENDCHAR
STARTCHAR 0073
ENCODING 115
SWIDTH 600 0
DWIDTH 25 0
BBX 19 22 3 0
BITMAP
01F000
0FFE00
3FFF80
3E0F80
7803C0
7803C0
7803C0
780000
7E0000
7FF000
3FFE00
0FFF80
01FFC0
000FC0
0003E0
F001E0
F001E0
F001E0
7803C0
7FFFC0
3FFF80
0FFE00
ENDCHAR
STARTCHAR 0074
ENCODING 116
SWIDTH 600 0
DWIDTH 25 0
BBX 20 28 2 0
BITMAP
00C000
01C000
01C000
01C000
01C000
01C000
03C000
FFFFF0
FFFFF0
FFFFF0
03C000
03C000
03C000
03C000
03C000
03C000
03C000
03C000
03C000
03C000
03C000
03C000
03E000
03E000
01F010
01FFF0
00FFF0
003FE0
ENDCHAR
STARTCHAR 0075
ENCODING 117
SWIDTH 600 0
DWIDTH 25 0
BBX 21 21 3 0
BITMAP
F003C0
F003C0
F003C0
F003C0
F003C0
F003C0
F003C0
F003C0
F003C0
F003C0
F003C0
F003C0
F003C0
F003C0
F003C0
F807C0
F807C0
7C1FC0
7FFFF8
3FF9F8
0FF1F8
ENDCHAR
STARTCHAR 0076
ENCODING 118
SWIDTH 600 0
DWIDTH 25 0
BBX 21 21 2 0
BITMAP
F80078
7800F0
7800F0
7C01F0
3C01E0
3E01E0
1E03C0
1E03C0
1F03C0
0F0780
0F8780
078F00
078F00
07CF00
03DE00
03DE00
01FC00
01FC00
01FC00
00F800
00F800
ENDCHAR
STARTCHAR 0077
ENCODING 119
SWIDTH 600 0
DWIDTH 25 0
BBX 25 21 0 0
BITMAP
F01E0780
F03E0780
703E0700
703E0700
783F0700
787F0F00
38770F00
38770E00
3C778E00
3C739E00
3CE39E00
1CE39C00
1CE39C00
1EE1FC00
1FC1FC00
0FC1FC00
0FC1F800
0FC1F800
0FC0F800
0F80F800
0780F000
ENDCHAR
STARTCHAR 0078
ENCODING 120
SWIDTH 600 0
DWIDTH 25 0
BBX 21 21 2 0
BITMAP
7C01F0
3E01E0
1F03C0
1F07C0
0F8780
07CF00
07DF00
03FE00
01FC00
00FC00
00F800
01FC00
03FE00
07DF00
079F00
0F8F80
1F07C0
1E07C0
3E03E0
7C01F0
F801F8
ENDCHAR
STARTCHAR 0079
ENCODING 121
SWIDTH 600 0
DWIDTH 25 0
BBX 21 29 2 -8
BITMAP
F800F8
7800F0
7C00F0
3C01E0
3E01E0
1E01C0
1E03C0
1F03C0
0F0780
0F0780
078780
078F00
07CF00
03CE00
03DE00
03FE00
01FC00
01FC00
00F800
00F800
00F800
00F000
00F000
01E000
01E000
27C000
3FC000
3F0000
1C0000
ENDCHAR
STARTCHAR 007A
ENCODING 122
SWIDTH 600 0
DWIDTH 25 0
BBX 17 21 4 0
BITMAP
7FFF00
7FFF00
7FFF00
003E00
003C00
007C00
00F800
00F000
01F000
03E000
03E000
07C000
078000
0F8000
1F0000
1F0000
3E0000
3C0000
7FFF80
FFFF80
FFFF80
ENDCHAR
STARTCHAR 007B
ENCODING 123
SWIDTH 600 0
DWIDTH 25 0
BBX 10 36 8 -7
BITMAP
01C0
07C0
0F80
1E00
1C00
1C00
1C00
1C00
1C00
1C00
1C00
1C00
1C00
1C00
1C00
3C00
F800
F000
F000
F800
3C00
1C00
1C00
1C00
1C00
1C00
1C00
1C00
1C00
1C00
1C00
1C00
1E00
0F80
0FC0
01C0
ENDCHAR
STARTCHAR 007C
ENCODING 124
SWIDTH 600 0
DWIDTH 25 0
BBX 3 38 11 -8
BITMAP
E0
E0
E0
E0
E0
E0
E0
E0
E0
E0
E0
E0
E0
E0
E0
E0
E0
E0
E0
E0
E0
E0
E0
E0
E0
E0
E0
E0
E0
E0
E0
E0
E0
E0
E0
E0
E0
E0
ENDCHAR
STARTCHAR 007D
ENCODING 125
SWIDTH 600 0
DWIDTH 25 0
BBX 10 36 7 -7
BITMAP
E000
F800
7C00
1E00
0E00
0E00
0E00
0E00
0E00
0E00
0E00
0E00
0E00
0E00
0E00
0F00
07C0
03C0
03C0
07C0
0F00
0E00
0E00
0E00
0E00
0E00
0E00
0E00
0E00
0E00
0E00
0E00
1E00
7C00
F800
E000
ENDCHAR
STARTCHAR 007E
ENCODING 126
SWIDTH 600 0
DWIDTH 25 0
BBX 23 7 1 9
BITMAP
020002
1FE006
7FF80E
FFFFFE
F03FFC
C00FF8
8000C0
ENDCHAR
STARTCHAR 00A0
ENCODING 160
SWIDTH 600 0
DWIDTH 25 0
BBX 0 0 0 0
BITMAP
ENDCHAR
STARTCHAR 00A1
ENCODING 161
SWIDTH 600 0
DWIDTH 25 0
BBX 5 28 10 -7
BITMAP
F8
F8
F8
F8
F8
00
00
70
70
70
70
70
70
70
70
70
70
70
F8
F8
F8
F8
F8
F8
F8
F8
F8
F8
ENDCHAR
STARTCHAR 00A2
ENCODING 162
SWIDTH 600 0
DWIDTH 25 0
BBX 19 29 3 0
BITMAP
00E000
00E000
006000
006000
03FC00
0FFF00
1FFF80
3E07C0
7C03C0
7801C0
7801E0
F801E0
F80000
F80000
F80000
F80000
F80000
F801E0
7801E0
7801E0
7C01C0
3E03C0
1F0F80
1FFF00
07FE00
01F800
006000
00E000
00E000
ENDCHAR
STARTCHAR 00A3
ENCODING 163
SWIDTH 600 0
DWIDTH 25 0
BBX 22 29 1 0
BITMAP
003F80
00FFE0
01FFF0
03F1F8
07C07C
07803C
07803C
07803C
07803C
078000
078000
078000
078000
FFFF00
FFFF00
FFFF00
FFFF00
078000
078000
078000
078000
070000
070000
070000
070000
070000
7FFFF8
7FFFF8
7FFFF8
ENDCHAR
STARTCHAR 00A4
ENCODING 164
SWIDTH 600 0
DWIDTH 25 0
BBX 21 22 2 3
BITMAP
400020
63FE30
F7FF78
7FFFF0
3E03E0
3C01E0
7800F0
700070
F00078
E00038
E00038
E00038
E00038
F00078
700070
7800F0
3C01E0
3E03E0
7FFFF0
F7FF78
63FE30
400000
ENDCHAR
STARTCHAR 00A5
ENCODING 165
SWIDTH 600 0
DWIDTH 25 0
BBX 23 29 1 0
BITMAP
F8001E
F8003E
7C003C
7C007C
3E0078
3E00F8
1F00F0
0F01E0
0F81E0
0783C0
07C7C0
7FC7FC
7FEFFC
01FF00
01FF00
00FE00
7FFFFC
7FFFFC
7FFFFC
007C00
007C00
007C00
007C00
007C00
007C00
007C00
007C00
007C00
007C00
ENDCHAR
STARTCHAR 00A6
ENCODING 166
SWIDTH 600 0
DWIDTH 25 0
BBX 3 38 11 -8
BITMAP
E0
E0
E0
E0
E0
E0
E0
E0
E0
E0
E0
E0
E0
E0
E0
00
00
00
00
00
00
00
00
E0
E0
E0
E0
E0
E0
E0
E0
E0
E0
E0
E0
E0
E0
E0
ENDCHAR
STARTCHAR 00A7
ENCODING 167
SWIDTH 600 0
DWIDTH 25 0
BBX 19 37 3 -8
BITMAP
03F800
0FFE00
3FFF80
3E0780
7803C0
7803C0
7803C0
780000
7C0000
3E0000
3F8000
0FE000
1FF800
3DFE00
787F80
701FC0
F007C0
F003E0
F001E0
7801E0
7C01C0
3F01C0
1FC380
0FFF80
03FE00
007F00
001F80
000FC0
0003C0
0003C0
7803C0
7803C0
7803C0
3E0F80
1FFF00
0FFE00
00E000
ENDCHAR
STARTCHAR 00A8
ENCODING 168
SWIDTH 600 0
DWIDTH 25 0
BBX 13 4 6 26
BITMAP
F078
F078
F078
F078
ENDCHAR
STARTCHAR 00A9
ENCODING 169
SWIDTH 600 0
DWIDTH 25 0
BBX 25 29 0 0
BITMAP
007F0000
01FFE000
07007000
0E001800
18000C00
38000E00
307F0600
60FFC300
61E1C300
63C0E300
4380E100
C3806180
C3806180
C3800180
C3800180
C3800180
C3800180
C3806180
43806100
6380E300
61C1E300
61FFC300
307F8600
30080600
18000C00
0C001800
06003000
03C1E000
00FF8000
ENDCHAR
STARTCHAR 00AA
ENCODING 170
SWIDTH 600 0
DWIDTH 25 0
BBX 13 13 6 16
BITMAP
1F80
7FE0
70E0
6060
0060
01E0
3FE0
7860
E060
E0E0
E0E0
FFF8
7E78
ENDCHAR
STARTCHAR 00AB
ENCODING 171
SWIDTH 600 0
DWIDTH 25 0
BBX 16 14 4 7
BITMAP
0F07
0E0F
1E1E
3C1C
3C3C
7878
F0F8
F078
7878
3C3C
3C1E
1E0E
0E0F
0707
ENDCHAR
STARTCHAR 00AC
ENCODING 172
SWIDTH 600 0
DWIDTH 25 0
BBX 21 12 2 7
BITMAP
FFFFF8
FFFFF8
FFFFF8
FFFFF8
000078
000078
000078
000078
000078
000078
000078
000078
ENDCHAR
STARTCHAR 00AD
ENCODING 173
SWIDTH 600 0
DWIDTH 25 0
BBX 11 4 7 9
BITMAP
FFE0
FFE0
FFE0
FFE0
ENDCHAR
STARTCHAR 00AE
ENCODING 174
SWIDTH 600 0
DWIDTH 25 0
BBX 25 29 0 0
BITMAP
007F0000
01FFE000
07007000
0E001800
18000C00
38000E00
31FF0600
61FFC300
61C3E300
61C0E300
41C0E100
C1C0E180
C1C0E180
C1C1C180
C1FF8180
C1FFC180
C1C1C180
C1C0E180
41C0E100
61C0E300
61C0E300
61C0E300
31C0F600
30000600
18000C00
0C001800
06003000
03C1E000
00FF8000
ENDCHAR
STARTCHAR 00AF
ENCODING 175
SWIDTH 600 0
DWIDTH 25 0
BBX 13 2 6 26
BITMAP
FFF8
FFF8
ENDCHAR
STARTCHAR 00B0
ENCODING 176
SWIDTH 600 0
DWIDTH 25 0
BBX 13 13 6 16
BITMAP
0F80
3FE0
7DF0
7070
E038
E038
E038
E038
E038
7070
3FE0
1FC0
0200
ENDCHAR
STARTCHAR 00B1
ENCODING 177
SWIDTH 600 0
DWIDTH 25 0
BBX 21 21 2 0
BITMAP
007000
007000
007000
007000
007000
007000
FFFFF8
FFFFF8
FFFFF8
007000
007000
007000
007000
007000
007000
000000
000000
000000
FFFFF8
FFFFF8
FFFFF8
ENDCHAR
STARTCHAR 00B2
ENCODING 178
SWIDTH 600 0
DWIDTH 25 0
BBX 11 16 7 18
BITMAP
0400
3F80
7FC0
E1C0
E0E0
C0E0
00E0
01C0
03C0
0780
0F00
3C00
7800
E000
FFE0
FFE0
ENDCHAR
STARTCHAR 00B3
ENCODING 179
SWIDTH 600 0
DWIDTH 25 0
BBX 11 16 7 17
BITMAP
3F80
7FC0
E1C0
E0E0
00E0
00C0
03C0
1F80
1FC0
00E0
00E0
C0E0
E0E0
F1C0
7FC0
1F00
ENDCHAR
STARTCHAR 00B4
ENCODING 180
SWIDTH 600 0
DWIDTH 25 0
BBX 7 7 9 25
BITMAP
1E
1C
3C
38
78
70
E0
ENDCHAR
STARTCHAR 00B5
ENCODING 181
SWIDTH 600 0
DWIDTH 25 0
BBX 21 28 3 -7
BITMAP
F003C0
F003C0
F003C0
F003C0
F003C0
F003C0
F003C0
F003C0
F003C0
F003C0
F003C0
F003C0
F003C0
F003C0
F003C0
F807C0
F807C0
FC1FC0
FFFFF8
FFF9F8
F7F1F8
F00000
F00000
F00000
F00000
F00000
F00000
F00000
ENDCHAR
STARTCHAR 00B6
ENCODING 182
SWIDTH 600 0
DWIDTH 25 0
BBX 19 36 2 -7
BITMAP
00FFE0
0FFFE0
1FFFE0
3FE300
7FE300
7FE300
FFE300
FFE300
FFE300
FFE300
FFE300
FFE300
FFE300
7FE300
7FE300
3FE300
1FE300
0FE300
00E300
00E300
00E300
00E300
00E300
00E300
00E300
00E300
00E300
00E300
00E300
00E300
00E300
00E300
00E300
00E300
00E300
00E300
ENDCHAR
STARTCHAR 00B7
ENCODING 183
SWIDTH 600 0
DWIDTH 25 0
BBX 5 5 10 13
BITMAP
F8
F8
F8
F8
F8
ENDCHAR
STARTCHAR 00B8
ENCODING 184
SWIDTH 600 0
DWIDTH 25 0
BBX 9 8 8 -9
BITMAP
1E00
1F00
0380
0380
0380
FF80
FF00
3C00
ENDCHAR
STARTCHAR 00B9
ENCODING 185
SWIDTH 600 0
DWIDTH 25 0
BBX 10 15 7 18
BITMAP
0E00
FE00
FE00
0E00
0E00
0E00
0E00
0E00
0E00
0E00
0E00
0E00
0E00
FFC0
FFC0
ENDCHAR
STARTCHAR 00BA
ENCODING 186
SWIDTH 600 0
DWIDTH 25 0
BBX 13 13 6 16
BITMAP
0F80
3FE0
78F0
7070
6070
6030
E038
6030
6030
7070
78F0
3FE0
1FC0
ENDCHAR
STARTCHAR 00BB
ENCODING 187
SWIDTH 600 0
DWIDTH 25 0
BBX 16 14 5 7
BITMAP
E0F0
F070
7878
383C
3C1C
1E1E
1F0F
1E0F
1E1E
3C3C
383C
7078
F070
E0E0
ENDCHAR
STARTCHAR 00BC
ENCODING 188
SWIDTH 600 0
DWIDTH 25 0
BBX 25 29 0 0
BITMAP
00000380
0E000700
FE000E00
FE000E00
0E001C00
0E003800
0E007000
0E006000
0E00E000
0E01C000
0E018000
0E070000
0E000000
0E000800
FFC03000
FFC07000
00007200
00706600
00E0E600
01C0C600
0181C600
03818600
07030600
0E07FF80
0C07FF80
1C07FF80
38000600
70000600
F0000600
ENDCHAR
STARTCHAR 00BD
ENCODING 189
SWIDTH 600 0
DWIDTH 25 0
BBX 25 29 0 0
BITMAP
00000380
0E000700
FE000E00
FE001C00
0E001C00
0E003800
0E007000
0E006000
0E00C000
0E01C000
0E038000
0E070000
0E000000
0E001000
FFC0FE00
FFC1FF00
00018380
00638380
00E38380
01C00380
03800380
03000700
07001E00
0E003C00
1C00F000
1C01E000
3803C000
7003FF80
E003FF80
ENDCHAR
STARTCHAR 00BE
ENCODING 190
SWIDTH 600 0
DWIDTH 25 0
BBX 25 29 0 0
BITMAP
3F800380
7FC00700
60E00E00
E0E00E00
00E01C00
00E03800
03C07000
0F806000
0FC0E000
00E1C000
00618000
C0670000
E0E00000
71E00800
7FC03000
1F007000
00007200
00706600
00E0E600
01C0C600
0181C600
03818600
07030600
0E07FF80
0C07FF80
1C07FF80
38000600
70000600
F0000600
ENDCHAR
STARTCHAR 00BF
ENCODING 191
SWIDTH 600 0
DWIDTH 25 0
BBX 19 29 3 -8
BITMAP
03F000
03F000
03F000
03F000
03F000
000000
000000
01E000
01E000
01E000
01E000
01E000
03C000
07C000
1F8000
3F0000
7E0000
7C0000
780200
F801E0
F801E0
F803E0
7803C0
7803C0
7C0780
3FFF80
1FFF00
0FFC00
01F000
ENDCHAR
STARTCHAR 00C0
ENCODING 192
SWIDTH 600 0
DWIDTH 25 0
BBX 23 37 1 0
BITMAP
07C000
01E000
01E000
00F000
007800
003C00
000000
000000
007C00
00FC00
00FE00
00FE00
01FE00
01EF00
01EF00
01CF00
03C780
03C780
03C780
0783C0
0783C0
0783C0
0F03E0
0F01E0
0F01E0
1E01F0
1E00F0
1FFFF0
3FFFF8
3FFFF8
3FFFF8
7C007C
78003C
78003C
F8003E
F0003E
F0001E
ENDCHAR
STARTCHAR 00C1
ENCODING 193
SWIDTH 600 0
DWIDTH 25 0
BBX 23 37 1 0
BITMAP
0007C0
000780
000F00
001E00
003C00
003800
000000
000000
007C00
00FC00
00FE00
00FE00
01FE00
01EF00
01EF00
01CF00
03C780
03C780
03C780
0783C0
0783C0
0783C0
0F03E0
0F01E0
0F01E0
1E01F0
1E00F0
1FFFF0
3FFFF8
3FFFF8
3FFFF8
7C007C
78003C
78003C
F8003E
F0003E
F0001E
ENDCHAR
STARTCHAR 00C2
ENCODING 194
SWIDTH 600 0
DWIDTH 25 0
BBX 23 37 1 0
BITMAP
007C00
00FE00
01EF00
03C780
0783C0
080000
000000
000000
007C00
00FC00
00FE00
00FE00
01FE00
01EF00
01EF00
01CF00
03C780
03C780
03C780
0783C0
0783C0
0783C0
0F03E0
0F01E0
0F01E0
1E01F0
1E00F0
1FFFF0
3FFFF8
3FFFF8
3FFFF8
7C007C
78003C
78003C
F8003E
F0003E
F0001E
ENDCHAR
STARTCHAR 00C3
ENCODING 195
SWIDTH 600 0
DWIDTH 25 0
BBX 23 37 1 0
BITMAP
018060
03F8E0
07FFC0
0F7FC0
0C0F80
000000
000000
000000
007C00
00FC00
00FE00
00FE00
01FE00
01EF00
01EF00
01CF00
03C780
03C780
03C780
0783C0
0783C0
0783C0
0F03E0
0F01E0
0F01E0
1E01F0
1E00F0
1FFFF0
3FFFF8
3FFFF8
3FFFF8
7C007C
78003C
78003C
F8003E
F0003E
F0001E
ENDCHAR
STARTCHAR 00C4
ENCODING 196
SWIDTH 600 0
DWIDTH 25 0
BBX 23 36 1 0
BITMAP
0783C0
0783C0
0783C0
0783C0
000000
000000
000000
007C00
00FC00
00FE00
00FE00
01FE00
01EF00
01EF00
01CF00
03C780
03C780
03C780
0783C0
0783C0
0783C0
0F03E0
0F01E0
0F01E0
1E01F0
1E00F0
1FFFF0
3FFFF8
3FFFF8
3FFFF8
7C007C
78003C
78003C
F8003E
F0003E
F0001E
ENDCHAR
STARTCHAR 00C5
ENCODING 197
SWIDTH 600 0
DWIDTH 25 0
BBX 23 39 1 0
BITMAP
007C00
00FE00
01C700
018300
018300
01C700
00FE00
007C00
000000
000000
007C00
00FC00
00FE00
00FE00
01FE00
01EF00
01EF00
01CF00
03C780
03C780
03C780
0783C0
0783C0
0783C0
0F03E0
0F01E0
0F01E0
1E01F0
1E00F0
1FFFF0
3FFFF8
3FFFF8
3FFFF8
7C007C
78003C
78003C
F8003E
F0003E
F0001E
ENDCHAR
STARTCHAR 00C6
ENCODING 198
SWIDTH 600 0
DWIDTH 25 0
BBX 25 29 0 0
BITMAP
007FFF00
007FFF00
007FFF00
00FFFF00
00FF0000
00FF0000
01EF0000
01EF0000
01EF0000
03CF0000
03CF0000
03CF0000
078F0000
078FFC00
078FFC00
0F8FFC00
0F0F0000
0F0F0000
1F0F0000
1FFF0000
1FFF0000
3FFF0000
3FFF0000
3C0F0000
7C0F0000
780FFF00
780FFF00
F80FFF00
F00FFF80
ENDCHAR
STARTCHAR 00C7
ENCODING 199
SWIDTH 600 0
DWIDTH 25 0
BBX 21 38 2 -9
BITMAP
01FE00
0FFF80
1FFFC0
3FFFE0
7E01F0
7C00F0
F800F0
F800F8
F00078
F00078
F00078
F00000
F00000
F00000
F00000
F00000
F00000
F00000
F00078
F00078
F00078
F80078
F800F8
7800F0
7C01F0
3F07E0
1FFFC0
0FFF80
07FF00
000000
007800
007C00
000E00
000E00
000E00
03FE00
03FC00
00F000
ENDCHAR
STARTCHAR 00C8
ENCODING 200
SWIDTH 600 0
DWIDTH 25 0
BBX 19 37 4 0
BITMAP
1E0000
0F0000
078000
03C000
01C000
00E000
000000
000000
FFFFC0
FFFFC0
FFFFC0
FFFFC0
F00000
F00000
F00000
F00000
F00000
F00000
F00000
F00000
F00000
FFFF00
FFFF00
FFFF00
F00000
F00000
F00000
F00000
F00000
F00000
F00000
F00000
F00000
FFFFC0
FFFFC0
FFFFC0
FFFFE0
ENDCHAR
STARTCHAR 00C9
ENCODING 201
SWIDTH 600 0
DWIDTH 25 0
BBX 19 37 4 0
BITMAP
001F00
003C00
003800
007800
00F000
01E000
000000
000000
FFFFC0
FFFFC0
FFFFC0
FFFFC0
F00000
F00000
F00000
F00000
F00000
F00000
F00000
F00000
F00000
FFFF00
FFFF00
FFFF00
F00000
F00000
F00000
F00000
F00000
F00000
F00000
F00000
F00000
FFFFC0
FFFFC0
FFFFC0
FFFFE0
ENDCHAR
STARTCHAR 00CA
ENCODING 202
SWIDTH 600 0
DWIDTH 25 0
BBX 19 37 4 0
BITMAP
01F000
03F800
07B800
0F1C00
1E0E00
200100
000000
000000
FFFFC0
FFFFC0
FFFFC0
FFFFC0
F00000
F00000
F00000
F00000
F00000
F00000
F00000
F00000
F00000
FFFF00
FFFF00
FFFF00
F00000
F00000
F00000
F00000
F00000
F00000
F00000
F00000
F00000
FFFFC0
FFFFC0
FFFFC0
FFFFE0
ENDCHAR
STARTCHAR 00CB
ENCODING 203
SWIDTH 600 0
DWIDTH 25 0
BBX 19 36 4 0
BITMAP
1E0F00
1E0F00
1E0F00
1E0F00
000000
000000
000000
FFFFC0
FFFFC0
FFFFC0
FFFFC0
F00000
F00000
F00000
F00000
F00000
F00000
F00000
F00000
F00000
FFFF00
FFFF00
FFFF00
F00000
F00000
F00000
F00000
F00000
F00000
F00000
F00000
F00000
FFFFC0
FFFFC0
FFFFC0
FFFFE0
ENDCHAR
STARTCHAR 00CC
ENCODING 204
SWIDTH 600 0
DWIDTH 25 0
BBX 17 37 4 0
BITMAP
3E0000
0F0000
0F0000
078000
03C000
01E000
000000
000000
FFFF80
FFFF80
FFFF80
FFFF80
03E000
03E000
03E000
03E000
03E000
03E000
03E000
03E000
03E000
03E000
03E000
03E000
03E000
03E000
03E000
03E000
03E000
03E000
03E000
03E000
03E000
03E000
FFFF80
FFFF80
FFFF80
ENDCHAR
STARTCHAR 00CD
ENCODING 205
SWIDTH 600 0
DWIDTH 25 0
BBX 17 37 4 0
BITMAP
003E00
003C00
007800
00F000
01E000
01C000
000000
000000
FFFF80
FFFF80
FFFF80
FFFF80
03E000
03E000
03E000
03E000
03E000
03E000
03E000
03E000
03E000
03E000
03E000
03E000
03E000
03E000
03E000
03E000
03E000
03E000
03E000
03E000
03E000
03E000
FFFF80
FFFF80
FFFF80
ENDCHAR
STARTCHAR 00CE
ENCODING 206
SWIDTH 600 0
DWIDTH 25 0
BBX 17 37 4 0
BITMAP
03E000
07F000
0F7800
1E3C00
3C1E00
400000
000000
000000
FFFF80
FFFF80
FFFF80
FFFF80
03E000
03E000
03E000
03E000
03E000
03E000
03E000
03E000
03E000
03E000
03E000
03E000
03E000
03E000
03E000
03E000
03E000
03E000
03E000
03E000
03E000
03E000
FFFF80
FFFF80
FFFF80
ENDCHAR
STARTCHAR 00CF
ENCODING 207
SWIDTH 600 0
DWIDTH 25 0
BBX 17 36 4 0
BITMAP
3C1E00
3C1E00
3C1E00
3C1E00
000000
000000
000000
FFFF80
FFFF80
FFFF80
FFFF80
03E000
03E000
03E000
03E000
03E000
03E000
03E000
03E000
03E000
03E000
03E000
03E000
03E000
03E000
03E000
03E000
03E000
03E000
03E000
03E000
03E000
03E000
FFFF80
FFFF80
FFFF80
ENDCHAR
STARTCHAR 00D0
ENCODING 208
SWIDTH 600 0
DWIDTH 25 0
BBX 24 29 0 0
BITMAP
1FFC00
1FFFE0
1FFFF0
1FFFF8
1F00FC
1F003E
1F001E
1F001F
1F001F
1F000F
1F000F
1F000F
1F000F
FFFE0F
FFFE0F
FFFE0F
1F000F
1F000F
1F000F
1F000F
1F000F
1F001F
1F001F
1F003E
1F007E
1FFFFC
1FFFF8
1FFFE0
1FFF80
ENDCHAR
STARTCHAR 00D1
ENCODING 209
SWIDTH 600 0
DWIDTH 25 0
BBX 19 37 3 0
BITMAP
060180
0FE380
1FFF00
3DFF00
303E00
000000
000000
000000
F001E0
F801E0
F801E0
FC01E0
FC01E0
FE01E0
FF01E0
FF01E0
FF81E0
F781E0
F7C1E0
F3C1E0
F3E1E0
F1E1E0
F1F1E0
F0F1E0
F0F9E0
F079E0
F07DE0
F03DE0
F03DE0
F01FE0
F01FE0
F00FE0
F00FE0
F007E0
F007E0
F003E0
F003E0
ENDCHAR
STARTCHAR 00D2
ENCODING 210
SWIDTH 600 0
DWIDTH 25 0
BBX 21 37 2 0
BITMAP
0F8000
03C000
03C000
01E000
00F000
007800
000000
000000
01FC00
0FFF80
1FFFC0
3FFFE0
7E03F0
7C01F0
F800F8
F800F8
F00078
F00078
F00078
F00078
F00078
F00078
F00078
F00078
F00078
F00078
F00078
F00078
F00078
F80078
F800F8
7800F0
7C01F0
3F07E0
1FFFC0
0FFF80
07FF00
ENDCHAR
STARTCHAR 00D3
ENCODING 211
SWIDTH 600 0
DWIDTH 25 0
BBX 21 37 2 0
BITMAP
000F80
000F00
001E00
003C00
007800
007000
000000
000000
01FC00
0FFF80
1FFFC0
3FFFE0
7E03F0
7C01F0
F800F8
F800F8
F00078
F00078
F00078
F00078
F00078
F00078
F00078
F00078
F00078
F00078
F00078
F00078
F00078
F80078
F800F8
7800F0
7C01F0
3F07E0
1FFFC0
0FFF80
07FF00
ENDCHAR
STARTCHAR 00D4
ENCODING 212
SWIDTH 600 0
DWIDTH 25 0
BBX 21 37 2 0
BITMAP
00F800
01FC00
03DE00
078F00
0F0780
100000
000000
000000
01FC00
0FFF80
1FFFC0
3FFFE0
7E03F0
7C01F0
F800F8
F800F8
F00078
F00078
F00078
F00078
F00078
F00078
F00078
F00078
F00078
F00078
F00078
F00078
F00078
F80078
F800F8
7800F0
7C01F0
3F07E0
1FFFC0
0FFF80
07FF00
ENDCHAR
STARTCHAR 00D5
ENCODING 213
SWIDTH 600 0
DWIDTH 25 0
BBX 21 37 2 0
BITMAP
0300C0
07F1C0
0FFF80
1EFF80
181F00
000000
000000
000000
01FC00
0FFF80
1FFFC0
3FFFE0
7E03F0
7C01F0
F800F8
F800F8
F00078
F00078
F00078
F00078
F00078
F00078
F00078
F00078
F00078
F00078
F00078
F00078
F00078
F80078
F800F8
7800F0
7C01F0
3F07E0
1FFFC0
0FFF80
07FF00
ENDCHAR
STARTCHAR 00D6
ENCODING 214
SWIDTH 600 0
DWIDTH 25 0
BBX 21 36 2 0
BITMAP
0F0780
0F0780
0F0780
0F0780
000000
000000
000000
01FC00
0FFF80
1FFFC0
3FFFE0
7E03F0
7C01F0
F800F8
F800F8
F00078
F00078
F00078
F00078
F00078
F00078
F00078
F00078
F00078
F00078
F00078
F00078
F00078
F80078
F800F8
7800F0
7C01F0
3F07E0
1FFFC0
0FFF80
07FF00
ENDCHAR
STARTCHAR 00D7
ENCODING 215
SWIDTH 600 0
DWIDTH 25 0
BBX 17 17 4 2
BITMAP
600300
F00780
F80F80
7C1F00
3E3E00
1F7C00
0FF800
07F000
03E000
07F000
0FF800
1F7C00
3E3E00
7C1F00
F80F80
700700
200200
ENDCHAR
STARTCHAR 00D8
ENCODING 216
SWIDTH 600 0
DWIDTH 25 0
BBX 23 34 1 -3
BITMAP
00000E
00001C
00FE18
07FFF8
0FFFF0
1FFFF0
3F01F8
3E00F8
7C01FC
7C03FC
7803BC
78073C
78063C
780E3C
781C3C
781C3C
78383C
78303C
78703C
78E03C
78E03C
79C03C
79803C
7F803C
7F007C
3F0078
3E00F8
1F83F0
1FFFE0
3FFFC0
3BFF80
700000
600000
E00000
ENDCHAR
STARTCHAR 00D9
ENCODING 217
SWIDTH 600 0
DWIDTH 25 0
BBX 19 37 3 0
BITMAP
1F0000
078000
078000
03C000
01E000
00F000
000000
000000
F001E0
F001E0
F001E0
F001E0
F001E0
F001E0
F001E0
F001E0
F001E0
F001E0
F001E0
F001E0
F001E0
F001E0
F001E0
F001E0
F001E0
F001E0
F001E0
F001E0
F001E0
F001E0
F001E0
F803E0
7C07C0
7E0FC0
3FFF80
1FFF00
0FFE00
ENDCHAR
STARTCHAR 00DA
ENCODING 218
SWIDTH 600 0
DWIDTH 25 0
BBX 19 37 3 0
BITMAP
001F00
001E00
003C00
007800
00F000
00E000
000000
000000
F001E0
F001E0
F001E0
F001E0
F001E0
F001E0
F001E0
F001E0
F001E0
F001E0
F001E0
F001E0
F001E0
F001E0
F001E0
F001E0
F001E0
F001E0
F001E0
F001E0
F001E0
F001E0
F001E0
F803E0
7C07C0
7E0FC0
3FFF80
1FFF00
0FFE00
ENDCHAR
STARTCHAR 00DB
ENCODING 219
SWIDTH 600 0
DWIDTH 25 0
BBX 19 37 3 0
BITMAP
01F000
03F800
07BC00
0F1E00
1E0F00
200000
000000
000000
F001E0
F001E0
F001E0
F001E0
F001E0
F001E0
F001E0
F001E0
F001E0
F001E0
F001E0
F001E0
F001E0
F001E0
F001E0
F001E0
F001E0
F001E0
F001E0
F001E0
F001E0
F001E0
F001E0
F803E0
7C07C0
7E0FC0
3FFF80
1FFF00
0FFE00
ENDCHAR
STARTCHAR 00DC
ENCODING 220
SWIDTH 600 0
DWIDTH 25 0
BBX 19 36 3 0
BITMAP
1E0F00
1E0F00
1E0F00
1E0F00
000000
000000
000000
F001E0
F001E0
F001E0
F001E0
F001E0
F001E0
F001E0
F001E0
F001E0
F001E0
F001E0
F001E0
F001E0
F001E0
F001E0
F001E0
F001E0
F001E0
F001E0
F001E0
F001E0
F001E0
F001E0
F803E0
7C07C0
7E0FC0
3FFF80
1FFF00
0FFE00
ENDCHAR
STARTCHAR 00DD
ENCODING 221
SWIDTH 600 0
DWIDTH 25 0
BBX 23 37 1 0
BITMAP
0007C0
000780
000F00
001E00
003C00
003800
000000
000000
F8001E
F8003E
7C003C
7C007C
3E0078
3E00F8
1F00F0
0F01E0
0F81E0
0783C0
07C7C0
03C780
03EF80
01FF00
01FF00
00FE00
00FE00
007C00
007C00
007C00
007C00
007C00
007C00
007C00
007C00
007C00
007C00
007C00
007C00
ENDCHAR
STARTCHAR 00DE
ENCODING 222
SWIDTH 600 0
DWIDTH 25 0
BBX 21 29 3 0
BITMAP
F80000
F80000
F80000
F80000
F80000
F80000
FFFF00
FFFFC0
FFFFE0
F803F0
F801F0
F800F8
F800F8
F800F8
F800F8
F800F8
F800F0
F801F0
F807E0
FFFFE0
FFFFC0
FFFF00
F80000
F80000
F80000
F80000
F80000
F80000
F80000
ENDCHAR
STARTCHAR 00DF
ENCODING 223
SWIDTH 600 0
DWIDTH 25 0
BBX 23 33 0 -3
BITMAP
007F80
01FFE0
03FFF0
07E1F8
0F807C
0F003C
0F003C
0F003C
0F003C
FF003C
FF0078
FF00F8
0F07F0
0F3FC0
0F3FE0
0F3FF8
0F00F8
0F003C
0F003E
0F001E
0F001E
0F001E
0F001E
0F003E
0F003E
0F007C
0F01F8
0F3FF8
0F3FE0
0F3F80
0F0000
0F0000
0F0000
ENDCHAR
STARTCHAR 00E0
ENCODING 224
SWIDTH 600 0
DWIDTH 25 0
BBX 21 32 3 0
BITMAP
0F0000
070000
078000
038000
03C000
01C000
00E000
000000
000000
000000
01E000
0FFE00
3FFF00
7E1F80
780780
7807C0
F007C0
0007C0
0007C0
003FC0
0FFFC0
3FFFC0
7E07C0
F807C0
F007C0
F007C0
F007C0
F00FC0
F81FC0
FFFBF8
7FFBF8
3FE1F8
ENDCHAR
STARTCHAR 00E1
ENCODING 225
SWIDTH 600 0
DWIDTH 25 0
BBX 21 32 3 0
BITMAP
003C00
003C00
007800
007000
00F000
00E000
01C000
000000
000000
000000
01E000
0FFE00
3FFF00
7E1F80
780780
7807C0
F007C0
0007C0
0007C0
003FC0
0FFFC0
3FFFC0
7E07C0
F807C0
F007C0
F007C0
F007C0
F00FC0
F81FC0
FFFBF8
7FFBF8
3FE1F8
ENDCHAR
STARTCHAR 00E2
ENCODING 226
SWIDTH 600 0
DWIDTH 25 0
BBX 21 32 3 0
BITMAP
01E000
03F000
03F000
07B800
0F3C00
0E1E00
1C0E00
200100
000000
000000
01E000
0FFE00
3FFF00
7E1F80
780780
7807C0
F007C0
0007C0
0007C0
003FC0
0FFFC0
3FFFC0
7E07C0
F807C0
F007C0
F007C0
F007C0
F00FC0
F81FC0
FFFBF8
7FFBF8
3FE1F8
ENDCHAR
STARTCHAR 00E3
ENCODING 227
SWIDTH 600 0
DWIDTH 25 0
BBX 21 30 3 0
BITMAP
1F8380
3FE700
3FFF00
30FE00
703C00
000000
000000
000000
01E000
0FFE00
3FFF00
7E1F80
780780
7807C0
F007C0
0007C0
0007C0
003FC0
0FFFC0
3FFFC0
7E07C0
F807C0
F007C0
F007C0
F007C0
F00FC0
F81FC0
FFFBF8
7FFBF8
3FE1F8
ENDCHAR
STARTCHAR 00E4
ENCODING 228
SWIDTH 600 0
DWIDTH 25 0
BBX 21 30 3 0
BITMAP
3C0F00
3C0F00
3C0F00
3C0F00
000000
000000
000000
000000
01E000
0FFE00
3FFF00
7E1F80
780780
7807C0
F007C0
0007C0
0007C0
003FC0
0FFFC0
3FFFC0
7E07C0
F807C0
F007C0
F007C0
F007C0
F00FC0
F81FC0
FFFBF8
7FFBF8
3FE1F8
ENDCHAR
STARTCHAR 00E5
ENCODING 229
SWIDTH 600 0
DWIDTH 25 0
BBX 21 33 3 0
BITMAP
00E000
03F000
073800
061800
061C00
061800
073800
03F000
00C000
000000
000000
01E000
0FFE00
3FFF00
7E1F80
780780
7807C0
F007C0
0007C0
0007C0
003FC0
0FFFC0
3FFFC0
7E07C0
F807C0
F007C0
F007C0
F007C0
F00FC0
F81FC0
FFFBF8
7FFBF8
3FE1F8
ENDCHAR
STARTCHAR 00E6
ENCODING 230
SWIDTH 600 0
DWIDTH 25 0
BBX 23 22 1 0
BITMAP
0701E0
3FC7F8
7FE7FC
78FF3C
707E1E
F07C0E
E03C0E
003C0E
003C0E
00FFFE
1FFFFE
3FFFFE
7C3800
F03800
E03C0E
E03C0E
E07C0E
E07C0E
E0FE1E
FFEFFC
7FCFFC
3F83F0
ENDCHAR
STARTCHAR 00E7
ENCODING 231
SWIDTH 600 0
DWIDTH 25 0
BBX 18 31 3 -9
BITMAP
01F000
0FFC00
1FFF00
3F1F80
7C0780
7803C0
F803C0
F003C0
F001C0
F00000
F00000
F00000
F00000
F00000
F001C0
F003C0
7803C0
7803C0
3C0780
3FFF00
1FFF00
07FC00
000000
00F000
00F800
001C00
001C00
001C00
07FC00
07F800
01E000
ENDCHAR
STARTCHAR 00E8
ENCODING 232
SWIDTH 600 0
DWIDTH 25 0
BBX 19 32 3 0
BITMAP
078000
078000
03C000
03C000
01C000
00E000
00E000
001000
000000
000000
00F000
07FE00
1FFF00
3F1F80
7C07C0
7803C0
F803E0
F001E0
F001E0
FFFFE0
FFFFE0
FFFFE0
F00000
F00000
F001E0
F001E0
F801E0
7803C0
7C07C0
3FFF80
1FFF00
07FC00
ENDCHAR
STARTCHAR 00E9
ENCODING 233
SWIDTH 600 0
DWIDTH 25 0
BBX 19 32 3 0
BITMAP
001E00
003C00
003C00
007800
007000
00F000
00E000
010000
000000
000000
00F000
07FE00
1FFF00
3F1F80
7C07C0
7803C0
F803E0
F001E0
F001E0
FFFFE0
FFFFE0
FFFFE0
F00000
F00000
F001E0
F001E0
F801E0
7803C0
7C07C0
3FFF80
1FFF00
07FC00
ENDCHAR
STARTCHAR 00EA
ENCODING 234
SWIDTH 600 0
DWIDTH 25 0
BBX 19 32 3 0
BITMAP
00F000
01F000
03F800
03BC00
079E00
0F0E00
1E0700
000080
000000
000000
00F000
07FE00
1FFF00
3F1F80
7C07C0
7803C0
F803E0
F001E0
F001E0
FFFFE0
FFFFE0
FFFFE0
F00000
F00000
F001E0
F001E0
F801E0
7803C0
7C07C0
3FFF80
1FFF00
07FC00
ENDCHAR
STARTCHAR 00EB
ENCODING 235
SWIDTH 600 0
DWIDTH 25 0
BBX 19 30 3 0
BITMAP
1E0F00
1E0F00
1E0F00
1E0F00
000000
000000
000000
000000
00F000
07FE00
1FFF00
3F1F80
7C07C0
7803C0
F803E0
F001E0
F001E0
FFFFE0
FFFFE0
FFFFE0
F00000
F00000
F001E0
F001E0
F801E0
7803C0
7C07C0
3FFF80
1FFF00
07FC00
ENDCHAR
STARTCHAR 00EC
ENCODING 236
SWIDTH 600 0
DWIDTH 25 0
BBX 19 32 4 0
BITMAP
0F0000
078000
078000
03C000
01C000
01E000
00E000
000000
000000
000000
000000
FFF000
FFF000
FFF000
00F000
00F000
00F000
00F000
00F000
00F000
00F000
00F000
00F000
00F000
00F000
00F000
00F000
00F000
00F000
FFFFE0
FFFFE0
FFFFE0
ENDCHAR
STARTCHAR 00ED
ENCODING 237
SWIDTH 600 0
DWIDTH 25 0
BBX 19 32 4 0
BITMAP
003C00
003C00
007800
007800
00F000
00E000
00E000
010000
000000
000000
000000
FFF000
FFF000
FFF000
00F000
00F000
00F000
00F000
00F000
00F000
00F000
00F000
00F000
00F000
00F000
00F000
00F000
00F000
00F000
FFFFE0
FFFFE0
FFFFE0
ENDCHAR
STARTCHAR 00EE
ENCODING 238
SWIDTH 600 0
DWIDTH 25 0
BBX 19 32 4 0
BITMAP
00E000
01F000
03F800
07BC00
071C00
0E1E00
1E0F00
200000
000000
000000
000000
FFF000
FFF000
FFF000
00F000
00F000
00F000
00F000
00F000
00F000
00F000
00F000
00F000
00F000
00F000
00F000
00F000
00F000
00F000
FFFFE0
FFFFE0
FFFFE0
ENDCHAR
STARTCHAR 00EF
ENCODING 239
SWIDTH 600 0
DWIDTH 25 0
BBX 19 30 4 0
BITMAP
1E0F00
1E0F00
1E0F00
1E0F00
000000
000000
000000
000000
000000
FFF000
FFF000
FFF000
00F000
00F000
00F000
00F000
00F000
00F000
00F000
00F000
00F000
00F000
00F000
00F000
00F000
00F000
00F000
FFFFE0
FFFFE0
FFFFE0
ENDCHAR
STARTCHAR 00F0
ENCODING 240
SWIDTH 600 0
DWIDTH 25 0
BBX 19 30 3 0
BITMAP
3C0800
1F3C00
07F000
03E000
1FF000
3CF800
107C00
003E00
01DF00
0FFF00
1FFF80
3F1FC0
7C07C0
7803C0
F803E0
F001E0
F001E0
F001E0
F001E0
F001E0
F001E0
F001E0
F001E0
F001E0
F803E0
7803C0
7C07C0
3FFF80
1FFF00
07FC00
ENDCHAR
STARTCHAR 00F1
ENCODING 241
SWIDTH 600 0
DWIDTH 25 0
BBX 18 30 4 0
BITMAP
1F8300
3FE700
3BFE00
70FE00
603800
000000
000000
000000
00E000
E7FE00
EFFF00
FFFF80
FC0F80
F80780
F007C0
F007C0
F007C0
F007C0
F007C0
F007C0
F007C0
F007C0
F007C0
F007C0
F007C0
F007C0
F007C0
F007C0
F007C0
F007C0
ENDCHAR
STARTCHAR 00F2
ENCODING 242
SWIDTH 600 0
DWIDTH 25 0
BBX 19 32 3 0
BITMAP
0F0000
078000
038000
03C000
01C000
01E000
00E000
001000
000000
000000
00E000
0FFC00
1FFF00
3F1F80
7C07C0
7803C0
F803E0
F001E0
F001E0
F001E0
F001E0
F001E0
F001E0
F001E0
F001E0
F001E0
F803E0
7803C0
3C0780
3FFF80
1FFF00
07FC00
ENDCHAR
STARTCHAR 00F3
ENCODING 243
SWIDTH 600 0
DWIDTH 25 0
BBX 19 32 3 0
BITMAP
003C00
003C00
003800
007800
007000
00E000
00E000
010000
000000
000000
00E000
0FFC00
1FFF00
3F1F80
7C07C0
7803C0
F803E0
F001E0
F001E0
F001E0
F001E0
F001E0
F001E0
F001E0
F001E0
F001E0
F803E0
7803C0
3C0780
3FFF80
1FFF00
07FC00
ENDCHAR
STARTCHAR 00F4
ENCODING 244
SWIDTH 600 0
DWIDTH 25 0
BBX 19 32 3 0
BITMAP
00E000
01F000
03F800
07BC00
071C00
0E0E00
1E0F00
200080
000000
000000
00E000
0FFC00
1FFF00
3F1F80
7C07C0
7803C0
F803E0
F001E0
F001E0
F001E0
F001E0
F001E0
F001E0
F001E0
F001E0
F001E0
F803E0
7803C0
3C0780
3FFF80
1FFF00
07FC00
ENDCHAR
STARTCHAR 00F5
ENCODING 245
SWIDTH 600 0
DWIDTH 25 0
BBX 19 30 3 0
BITMAP
0FC180
1FE380
3FFF00
387F00
301C00
000000
000000
000000
00E000
0FFC00
1FFF00
3F1F80
7C07C0
7803C0
F803E0
F001E0
F001E0
F001E0
F001E0
F001E0
F001E0
F001E0
F001E0
F001E0
F803E0
7803C0
3C0780
3FFF80
1FFF00
07FC00
ENDCHAR
STARTCHAR 00F6
ENCODING 246
SWIDTH 600 0
DWIDTH 25 0
BBX 19 30 3 0
BITMAP
1E0F00
1E0F00
1E0F00
1E0F00
000000
000000
000000
000000
00E000
0FFC00
1FFF00
3F1F80
7C07C0
7803C0
F803E0
F001E0
F001E0
F001E0
F001E0
F001E0
F001E0
F001E0
F001E0
F001E0
F803E0
7803C0
3C0780
3FFF80
1FFF00
07FC00
ENDCHAR
STARTCHAR 00F7
ENCODING 247
SWIDTH 600 0
DWIDTH 25 0
BBX 21 17 2 2
BITMAP
007000
007000
007000
007000
000000
000000
000000
FFFFF8
FFFFF8
FFFFF8
000000
000000
000000
007000
007000
007000
007000
ENDCHAR
STARTCHAR 00F8
ENCODING 248
SWIDTH 600 0
DWIDTH 25 0
BBX 19 26 3 -2
BITMAP
0000E0
0001C0
00E180
0FFF80
1FFF00
3F1F80
7C0FC0
780FC0
F81FE0
F039E0
F031E0
F071E0
F061E0
F0E1E0
F1C1E0
F181E0
F381E0
F701E0
FE03E0
7E03C0
3C0780
3FFF80
3FFF00
37FC00
700000
E00000
ENDCHAR
STARTCHAR 00F9
ENCODING 249
SWIDTH 600 0
DWIDTH 25 0
BBX 21 32 3 0
BITMAP
0F0000
070000
078000
038000
03C000
01C000
00E000
000000
000000
000000
000000
F003C0
F003C0
F003C0
F003C0
F003C0
F003C0
F003C0
F003C0
F003C0
F003C0
F003C0
F003C0
F003C0
F003C0
F003C0
F807C0
F807C0
7C1FC0
7FFFF8
3FF9F8
0FF1F8
ENDCHAR
STARTCHAR 00FA
ENCODING 250
SWIDTH 600 0
DWIDTH 25 0
BBX 21 32 3 0
BITMAP
003C00
003C00
007800
007000
00F000
00E000
01C000
000000
000000
000000
000000
F003C0
F003C0
F003C0
F003C0
F003C0
F003C0
F003C0
F003C0
F003C0
F003C0
F003C0
F003C0
F003C0
F003C0
F003C0
F807C0
F807C0
7C1FC0
7FFFF8
3FF9F8
0FF1F8
ENDCHAR
STARTCHAR 00FB
ENCODING 251
SWIDTH 600 0
DWIDTH 25 0
BBX 21 32 3 0
BITMAP
01E000
01F000
03F800
07B800
0F3C00
0E1E00
1C0F00
200000
000000
000000
000000
F003C0
F003C0
F003C0
F003C0
F003C0
F003C0
F003C0
F003C0
F003C0
F003C0
F003C0
F003C0
F003C0
F003C0
F003C0
F807C0
F807C0
7C1FC0
7FFFF8
3FF9F8
0FF1F8
ENDCHAR
STARTCHAR 00FC
ENCODING 252
SWIDTH 600 0
DWIDTH 25 0
BBX 21 30 3 0
BITMAP
1E0F00
1E0F00
1E0F00
1E0F00
000000
000000
000000
000000
000000
F003C0
F003C0
F003C0
F003C0
F003C0
F003C0
F003C0
F003C0
F003C0
F003C0
F003C0
F003C0
F003C0
F003C0
F003C0
F807C0
F807C0
7C1FC0
7FFFF8
3FF9F8
0FF1F8
ENDCHAR
STARTCHAR 00FD
ENCODING 253
SWIDTH 600 0
DWIDTH 25 0
BBX 21 40 2 -8
BITMAP
000F00
001E00
001E00
003C00
003800
003800
007000
000000
000000
000000
000000
F800F8
7800F0
7C00F0
3C01E0
3E01E0
1E01C0
1E03C0
1F03C0
0F0780
0F0780
078780
078F00
07CF00
03CE00
03DE00
03FE00
01FC00
01FC00
00F800
00F800
00F800
00F000
00F000
01E000
01E000
27C000
3FC000
3F0000
1C0000
ENDCHAR
STARTCHAR 00FE
ENCODING 254
SWIDTH 600 0
DWIDTH 25 0
BBX 19 38 4 -8
BITMAP
F00000
F00000
F00000
F00000
F00000
F00000
F00000
F00000
F0F000
F3FC00
FFFF00
FF1F80
FC0780
F807C0
F803C0
F003C0
F003C0
F003E0
F003E0
F003E0
F003E0
F003E0
F003C0
F003C0
F803C0
F807C0
FC0F80
FFFF00
F7FE00
F3FC00
F00000
F00000
F00000
F00000
F00000
F00000
F00000
F00000
ENDCHAR
STARTCHAR 00FF
ENCODING 255
SWIDTH 600 0
DWIDTH 25 0
BBX 21 38 2 -8
BITMAP
0F0380
0F0380
0F0380
0F0380
000000
000000
000000
000000
000000
F800F8
7800F0
7C00F0
3C01E0
3E01E0
1E01C0
1E03C0
1F03C0
0F0780
0F0780
078780
078F00
07CF00
03CE00
03DE00
03FE00
01FC00
01FC00
00F800
00F800
00F800
00F000
00F000
01E000
01E000
27C000
3FC000
3F0000
1C0000
ENDCHAR
STARTCHAR 0152
ENCODING 140
SWIDTH 600 0
DWIDTH 25 0
BBX 23 29 2 0
BITMAP
01FFFC
0FFFFC
3FFFFC
3FFFFC
7C1E00
F81E00
F01E00
F01E00
F01E00
F01E00
E01E00
E01E00
E01E00
E01FF8
E01FF8
E01FF8
E01E00
E01E00
E01E00
E01E00
F01E00
F01E00
F01E00
F01E00
781E00
7FFFFC
3FFFFC
1FFFFC
07FFFE
ENDCHAR
STARTCHAR 0153
ENCODING 156
SWIDTH 600 0
DWIDTH 25 0
BBX 23 22 1 0
BITMAP
0F01E0
3FC7F8
7FEFF8
78FF3C
F07E1E
E07C0E
E03C0E
E03C0E
E03C0E
E03FFE
E03FFE
E03FFE
E03800
E03800
E03C0E
E03C0E
E07C0E
F07C0E
F0FE1E
7FEFFC
3FE7FC
1F83F0
ENDCHAR
STARTCHAR 0160
ENCODING 138
SWIDTH 600 0
DWIDTH 25 0
BBX 21 37 2 0
BITMAP
1E03C0
070700
038E00
01DC00
00F800
000000
000000
000000
01FE00
0FFF80
3FFFE0
3FCFE0
7C01F0
7800F0
F800F8
F80078
F80000
F80000
7E0000
7F8000
3FF800
1FFF00
07FFC0
00FFE0
001FF0
0003F8
0000F8
000078
F00078
F00078
F00078
F000F8
F800F8
7F07F0
3FFFE0
1FFFC0
07FF00
ENDCHAR
STARTCHAR 0161
ENCODING 154
SWIDTH 600 0
DWIDTH 25 0
BBX 19 32 3 0
BITMAP
3C0700
1E0F00
0E1E00
071C00
07B800
03F800
01F000
000000
000000
000000
01F000
0FFE00
3FFF80
3E0F80
7803C0
7803C0
7803C0
780000
7E0000
7FF000
3FFE00
0FFF80
01FFC0
000FC0
0003E0
F001E0
F001E0
F001E0
7803C0
7FFFC0
3FFF80
0FFE00
ENDCHAR
STARTCHAR 0178
ENCODING 159
SWIDTH 600 0
DWIDTH 25 0
BBX 23 36 1 0
BITMAP
0783C0
0783C0
0783C0
0783C0
000000
000000
000000
F8001E
F8003E
7C003C
7C007C
3E0078
3E00F8
1F00F0
0F01E0
0F81E0
0783C0
07C7C0
03C780
03EF80
01FF00
01FF00
00FE00
00FE00
007C00
007C00
007C00
007C00
007C00
007C00
007C00
007C00
007C00
007C00
007C00
007C00
ENDCHAR
STARTCHAR 017D
ENCODING 142
SWIDTH 600 0
DWIDTH 25 0
BBX 21 37 2 0
BITMAP
1E03C0
070700
038E00
01DC00
00F800
000000
000000
000000
7FFFF8
7FFFF8
7FFFF8
7FFFF0
0003E0
0003E0
0007C0
000F80
000F80
001F00
001F00
003E00
007C00
007C00
00F800
01F000
01F000
03E000
07C000
07C000
0F8000
1F0000
1F0000
3E0000
7E0000
7FFFF8
FFFFF8
FFFFF8
FFFFF8
ENDCHAR
STARTCHAR 017E
ENCODING 158
SWIDTH 600 0
DWIDTH 25 0
BBX 17 32 4 0
BITMAP
780E00
3C1E00
1C3C00
0E3800
0F7000
07F000
03E000
000000
000000
000000
000000
7FFF00
7FFF00
7FFF00
003E00
003C00
007C00
00F800
00F000
01F000
03E000
03E000
07C000
078000
0F8000
1F0000
1F0000
3E0000
3C0000
7FFF80
FFFF80
FFFF80
ENDCHAR
STARTCHAR 0192
ENCODING 131
SWIDTH 600 0
DWIDTH 25 0
BBX 19 38 2 -8
BITMAP
000FE0
001FE0
003FE0
003C00
007C00
007800
007800
007800
007800
03FFC0
03FFC0
03FFC0
00F000
00F000
00F000
00F000
00F000
00F000
01F000
01E000
01E000
01E000
01E000
01E000
01E000
03E000
03C000
03C000
03C000
03C000
03C000
03C000
07C000
078000
CF8000
FF8000
FE0000
380000
ENDCHAR
STARTCHAR 02C6
ENCODING 136
SWIDTH 600 0
DWIDTH 25 0
BBX 15 7 5 25
BITMAP
0380
07C0
0FE0
1EF0
1C70
3838
F83E
ENDCHAR
STARTCHAR 02DC
ENCODING 152
SWIDTH 600 0
DWIDTH 25 0
BBX 15 5 5 25
BITMAP
3F06
7F8E
FFFC
E1FC
C070
ENDCHAR
STARTCHAR 2013
ENCODING 150
SWIDTH 600 0
DWIDTH 25 0
BBX 17 4 4 9
BITMAP
FFFF80
FFFF80
FFFF80
FFFF80
ENDCHAR
STARTCHAR 2014
ENCODING 151
SWIDTH 600 0
DWIDTH 25 0
BBX 25 4 0 9
BITMAP
FFFFFF80
FFFFFF80
FFFFFF80
FFFFFF80
ENDCHAR
STARTCHAR 2018
ENCODING 145
SWIDTH 600 0
DWIDTH 25 0
BBX 5 12 10 17
BITMAP
18
38
70
60
E0
E0
F8
F8
F8
F8
F8
F8
ENDCHAR
STARTCHAR 2019
ENCODING 146
SWIDTH 600 0
DWIDTH 25 0
BBX 5 12 10 17
BITMAP
F8
F8
F8
F8
F8
F8
38
38
30
70
70
E0
ENDCHAR
STARTCHAR 201A
ENCODING 130
SWIDTH 600 0
DWIDTH 25 0
BBX 5 12 10 -6
BITMAP
F8
F8
F8
F8
F8
F8
38
38
30
70
70
E0
ENDCHAR
STARTCHAR 201C
ENCODING 147
SWIDTH 600 0
DWIDTH 25 0
BBX 13 12 6 17
BITMAP
3818
3838
7070
6060
E0E0
E0E0
F8F8
F8F8
F8F8
F8F8
F8F8
F8F8
ENDCHAR
STARTCHAR 201D
ENCODING 148
SWIDTH 600 0
DWIDTH 25 0
BBX 13 12 6 17
BITMAP
F8F8
F8F8
F8F8
F8F8
F8F8
F8F8
3838
3838
3030
7070
7070
E0E0
ENDCHAR
STARTCHAR 201E
ENCODING 132
SWIDTH 600 0
DWIDTH 25 0
BBX 13 12 6 -6
BITMAP
F8F8
F8F8
F8F8
F8F8
F8F8
F8F8
3838
3838
3030
7070
7070
E0E0
ENDCHAR
STARTCHAR 2020
ENCODING 134
SWIDTH 600 0
DWIDTH 25 0
BBX 19 36 3 -7
BITMAP
00E000
00E000
00E000
00E000
00E000
00E000
00E000
00E000
FFFFE0
FFFFE0
FFFFE0
80E020
00E000
00E000
00E000
00E000
00E000
00E000
00E000
00E000
00E000
00E000
00E000
00E000
00E000
00E000
00E000
00E000
00E000
00E000
00E000
00E000
00E000
00E000
00E000
00E000
ENDCHAR
STARTCHAR 2021
ENCODING 135
SWIDTH 600 0
DWIDTH 25 0
BBX 19 36 3 -7
BITMAP
00E000
00E000
00E000
00E000
00E000
00E000
00E000
00E000
FFFFE0
FFFFE0
FFFFE0
80E020
00E000
00E000
00E000
00E000
00E000
00E000
00E000
00E000
00E000
00E000
00E000
00E000
00E000
E0E0E0
FFFFE0
FFFFE0
F8E3E0
00E000
00E000
00E000
00E000
00E000
00E000
00E000
ENDCHAR
STARTCHAR 2022
ENCODING 149
SWIDTH 600 0
DWIDTH 25 0
BBX 13 13 6 8
BITMAP
0200
1FC0
3FE0
7FF0
7FF0
FFF8
FFF8
FFF8
FFF8
7FF0
3FE0
3FC0
0F80
ENDCHAR
STARTCHAR 2026
ENCODING 133
SWIDTH 600 0
DWIDTH 25 0
BBX 21 5 2 0
BITMAP
F8F8F8
F8F8F8
F8F8F8
F8F8F8
F8F8F8
ENDCHAR
STARTCHAR 2030
ENCODING 137
SWIDTH 600 0
DWIDTH 25 0
BBX 23 29 1 0
BITMAP
060000
3F8000
3FC000
70E000
60E000
60E000
60E000
60E000
60E000
70E000
79C000
3FC000
1F0000
000000
FFFFFE
FFFFFE
000000
1F83F0
3FC7F8
70EE1C
60EE0C
60EE0C
60EE0C
60EE0C
60EE0C
70EE1C
79C73C
3FC7F8
1F01F0
ENDCHAR
STARTCHAR 2039
ENCODING 139
SWIDTH 600 0
DWIDTH 25 0
BBX 9 14 8 7
BITMAP
0780
0F00
0E00
1E00
3C00
7800
F800
7800
3C00
3C00
1E00
0E00
0F00
0780
ENDCHAR
STARTCHAR 203A
ENCODING 155
SWIDTH 600 0
DWIDTH 25 0
BBX 9 14 8 7
BITMAP
F000
7800
3800
3C00
1E00
0F00
0F80
0F00
1E00
1E00
3C00
3800
7800
F000
ENDCHAR
STARTCHAR 20AC
ENCODING 128
SWIDTH 600 0
DWIDTH 25 0
BBX 21 29 1 0
BITMAP
0003F8
001FF8
007FF8
00FFF8
01FC00
03F000
03E000
07C000
07C000
078000
0F8000
FFFF80
FFFF80
0F0000
0F0000
0F0000
FFFF80
FFFF80
FFFF80
0F8000
078000
07C000
03E000
03F000
01F800
00FF08
007FF8
003FF8
000FF8
ENDCHAR
STARTCHAR 2122
ENCODING 153
SWIDTH 600 0
DWIDTH 25 0
BBX 25 17 0 12
BITMAP
FFFC0780
FFFE0F80
FFFE0F80
0C3E0F80
0C3E0F80
0C3F1B80
0C3F1B80
0C3B1B80
0C3B1B80
0C3B1B80
0C3BB380
0C39B380
0C39B380
0C39B380
0C39E380
0C38E380
0C38E380
ENDCHAR
ENDFONT
